<?xml version="1.0" encoding="UTF-8"?>
<!DOCTYPE svg PUBLIC "-//W3C//DTD SVG 1.1//EN" "http://www.w3.org/Graphics/SVG/1.1/DTD/svg11.dtd">
<svg xmlns="http://www.w3.org/2000/svg" version="1.1" width="500px" height="500px" style="shape-rendering:geometricPrecision; text-rendering:geometricPrecision; image-rendering:optimizeQuality; fill-rule:evenodd; clip-rule:evenodd" xmlns:xlink="http://www.w3.org/1999/xlink">
<g><path style="opacity:0.817" fill="#e6e6e6" d="M 191.5,-0.5 C 198.167,-0.5 204.833,-0.5 211.5,-0.5C 234.833,0.833333 258.167,0.833333 281.5,-0.5C 287.167,-0.5 292.833,-0.5 298.5,-0.5C 298.631,0.376442 298.298,1.04311 297.5,1.5C 292.595,1.24026 287.595,1.24026 282.5,1.5C 271.147,1.16782 259.814,1.50115 248.5,2.5C 249.326,3.45104 249.492,4.45104 249,5.5C 246.931,4.73622 244.764,4.23622 242.5,4C 243.696,3.34569 243.696,2.84569 242.5,2.5C 226.639,3.55074 210.806,2.88407 195,0.5C 192.041,1.96102 189.207,3.62769 186.5,5.5C 188.167,3.5 189.833,1.5 191.5,-0.5 Z"/></g>
<g><path style="opacity:1" fill="#d9d9d9" d="M 282.5,1.5 C 282.158,2.33825 281.492,2.67158 280.5,2.5C 273.825,2.33375 267.158,2.50042 260.5,3C 259.167,4 257.833,5 256.5,6C 258.047,8.74228 260.214,9.24228 263,7.5C 264.971,7.46828 266.471,8.30162 267.5,10C 274.167,10.3333 280.833,10.6667 287.5,11C 284.833,11.3333 282.167,11.6667 279.5,12C 281.167,12.3333 282.833,12.6667 284.5,13C 265.893,15.0983 247.227,15.9317 228.5,15.5C 223.422,14.983 218.422,13.8163 213.5,12C 219,11.2256 224,9.39222 228.5,6.5C 228.291,5.91395 227.957,5.41395 227.5,5C 216.699,3.34411 206.033,3.17744 195.5,4.5C 194.167,4.5 193.5,5.16667 193.5,6.5C 192.596,7.20895 192.263,8.20895 192.5,9.5C 190.194,9.99255 187.861,10.3259 185.5,10.5C 184.833,9.5 184.167,8.5 183.5,7.5C 183.973,6.09368 184.973,5.42702 186.5,5.5C 189.207,3.62769 192.041,1.96102 195,0.5C 210.806,2.88407 226.639,3.55074 242.5,2.5C 243.696,2.84569 243.696,3.34569 242.5,4C 244.764,4.23622 246.931,4.73622 249,5.5C 249.492,4.45104 249.326,3.45104 248.5,2.5C 259.814,1.50115 271.147,1.16782 282.5,1.5 Z"/></g>
<g><path style="opacity:1" fill="#b8b8b8" d="M 298.5,-0.5 C 299.833,-0.5 301.167,-0.5 302.5,-0.5C 302.384,2.85994 302.051,6.19327 301.5,9.5C 300.5,9.5 299.5,9.5 298.5,9.5C 298.5,8.5 298.5,7.5 298.5,6.5C 292.147,7.80892 285.814,7.64225 279.5,6C 278.692,5.69238 278.025,5.19238 277.5,4.5C 278.602,3.82434 279.602,3.15767 280.5,2.5C 281.492,2.67158 282.158,2.33825 282.5,1.5C 287.595,1.24026 292.595,1.24026 297.5,1.5C 298.298,1.04311 298.631,0.376442 298.5,-0.5 Z"/></g>
<g><path style="opacity:1" fill="#b8b8b8" d="M 195.5,4.5 C 201.565,4.2614 207.565,4.7614 213.5,6C 213.833,6.33333 214.167,6.66667 214.5,7C 211.823,8.75101 209.156,10.4177 206.5,12C 213.442,15.016 220.776,16.1826 228.5,15.5C 226.5,16.1667 224.5,16.8333 222.5,17.5C 214.167,17.5 205.833,17.5 197.5,17.5C 195.399,14.2034 194.065,10.5368 193.5,6.5C 193.5,5.16667 194.167,4.5 195.5,4.5 Z"/></g>
<g><path style="opacity:1" fill="#c9c9c9" d="M 195.5,4.5 C 206.033,3.17744 216.699,3.34411 227.5,5C 227.957,5.41395 228.291,5.91395 228.5,6.5C 224,9.39222 219,11.2256 213.5,12C 218.422,13.8163 223.422,14.983 228.5,15.5C 220.776,16.1826 213.442,15.016 206.5,12C 209.156,10.4177 211.823,8.75101 214.5,7C 214.167,6.66667 213.833,6.33333 213.5,6C 207.565,4.7614 201.565,4.2614 195.5,4.5 Z"/></g>
<g><path style="opacity:1" fill="#d5d5d5" d="M 314.5,8.5 C 319.022,10.2635 323.355,12.2635 327.5,14.5C 325.335,14.1159 323.668,14.7826 322.5,16.5C 324.761,16.2361 327.094,16.9028 329.5,18.5C 330.95,19.8498 331.617,21.5165 331.5,23.5C 339.279,24.4808 344.946,28.3141 348.5,35C 352.281,36.3898 355.947,38.0565 359.5,40C 360.877,42.3078 362.877,43.8078 365.5,44.5C 366.386,45.325 366.719,46.325 366.5,47.5C 367.93,47.5792 369.264,47.2458 370.5,46.5C 371.287,47.2421 371.953,48.0754 372.5,49C 374.384,49.2163 376.051,49.883 377.5,51C 379.899,51.711 382.232,51.5443 384.5,50.5C 385.386,51.325 385.719,52.325 385.5,53.5C 388.082,53.0254 390.082,53.6921 391.5,55.5C 391.44,56.0431 391.107,56.3764 390.5,56.5C 385.215,54.794 380.048,52.794 375,50.5C 374.107,51.0814 373.107,51.4148 372,51.5C 369.064,50.6069 366.231,49.6069 363.5,48.5C 363.548,45.7081 362.215,43.8747 359.5,43C 354.339,42.1637 349.839,39.9971 346,36.5C 344.588,37.9227 343.421,37.756 342.5,36C 342.833,35.6667 343.167,35.3333 343.5,35C 334.786,31.0199 326.786,26.8532 319.5,22.5C 319.5,21.5 319.5,20.5 319.5,19.5C 318.178,19.33 317.011,19.6634 316,20.5C 315.581,19.3279 314.915,18.3279 314,17.5C 313.577,18.9561 312.744,19.4561 311.5,19C 312.167,18 312.833,17 313.5,16C 312.262,16.0773 311.262,15.9106 310.5,15.5C 311.608,12.9409 312.941,10.6076 314.5,8.5 Z"/></g>
<g><path style="opacity:1" fill="#c7c7c7" d="M 183.5,7.5 C 184.167,8.5 184.833,9.5 185.5,10.5C 184.167,13.5 184.167,16.5 185.5,19.5C 183.797,18.3398 183.131,19.0065 183.5,21.5C 178.093,21.5651 172.926,21.8985 168,22.5C 166.674,22.2451 165.674,21.5784 165,20.5C 164.727,22.1012 164.227,23.6012 163.5,25C 158.785,26.7146 154.285,28.8812 150,31.5C 149.586,31.0426 149.086,30.7093 148.5,30.5C 146.851,31.6477 145.351,32.981 144,34.5C 143,34.1667 142,33.8333 141,33.5C 139.672,36.1613 137.672,38.1613 135,39.5C 129.107,42.0564 123.44,45.0564 118,48.5C 117.667,48.1667 117.333,47.8333 117,47.5C 115.796,48.4706 115.296,49.4706 115.5,50.5C 114.232,49.5721 112.899,49.4054 111.5,50C 108.064,53.5574 104.397,56.8908 100.5,60C 99.2068,60.49 97.8734,60.6567 96.5,60.5C 96.3259,58.139 95.9926,55.8056 95.5,53.5C 98.3447,56.1384 101.011,55.8051 103.5,52.5C 105.287,49.8655 105.954,47.1988 105.5,44.5C 131.219,31.641 157.219,19.3077 183.5,7.5 Z"/></g>
<g><path style="opacity:1" fill="#c7c7c7" d="M 280.5,2.5 C 279.602,3.15767 278.602,3.82434 277.5,4.5C 278.025,5.19238 278.692,5.69238 279.5,6C 285.814,7.64225 292.147,7.80892 298.5,6.5C 298.5,7.5 298.5,8.5 298.5,9.5C 299.5,9.5 300.5,9.5 301.5,9.5C 301.672,10.4916 301.338,11.1583 300.5,11.5C 297.36,10.3592 294.027,10.1925 290.5,11C 292.833,11.3333 295.167,11.6667 297.5,12C 288.007,14.5466 278.34,15.88 268.5,16C 267.944,16.3826 267.611,16.8826 267.5,17.5C 266.5,17.5 265.5,17.5 264.5,17.5C 250.5,17.5 236.5,17.5 222.5,17.5C 224.5,16.8333 226.5,16.1667 228.5,15.5C 247.227,15.9317 265.893,15.0983 284.5,13C 282.833,12.6667 281.167,12.3333 279.5,12C 282.167,11.6667 284.833,11.3333 287.5,11C 280.833,10.6667 274.167,10.3333 267.5,10C 266.471,8.30162 264.971,7.46828 263,7.5C 260.214,9.24228 258.047,8.74228 256.5,6C 257.833,5 259.167,4 260.5,3C 267.158,2.50042 273.825,2.33375 280.5,2.5 Z"/></g>
<g><path style="opacity:1" fill="#b4b4b4" d="M 300.5,11.5 C 300.371,13.2161 300.038,14.8828 299.5,16.5C 289.582,17.4741 279.582,17.8074 269.5,17.5C 268.833,17.5 268.167,17.5 267.5,17.5C 267.611,16.8826 267.944,16.3826 268.5,16C 278.34,15.88 288.007,14.5466 297.5,12C 295.167,11.6667 292.833,11.3333 290.5,11C 294.027,10.1925 297.36,10.3592 300.5,11.5 Z"/></g>
<g><path style="opacity:1" fill="#d5d5d5" d="M 299.5,16.5 C 296.578,22.6857 292.911,28.3524 288.5,33.5C 287.85,33.1961 287.183,32.8627 286.5,32.5C 278.411,34.5423 270.078,35.5423 261.5,35.5C 261.649,36.552 261.483,37.552 261,38.5C 258.727,38.2594 256.727,37.5927 255,36.5C 252.621,36.4825 250.454,37.1491 248.5,38.5C 242.733,38.7441 236.733,38.0774 230.5,36.5C 228.519,36.4371 226.852,37.1038 225.5,38.5C 224.108,37.3947 222.941,36.0614 222,34.5C 221.667,34.8333 221.333,35.1667 221,35.5C 217.658,33.4637 214.158,32.797 210.5,33.5C 210.167,33.1667 209.833,32.8333 209.5,32.5C 210.376,31.7492 211.376,31.2492 212.5,31C 212,30.5 211.5,30 211,29.5C 209.052,30.1094 207.218,30.776 205.5,31.5C 201.565,27.5634 198.898,22.8968 197.5,17.5C 205.833,17.5 214.167,17.5 222.5,17.5C 236.5,17.5 250.5,17.5 264.5,17.5C 249.339,18.3314 234.005,18.8314 218.5,19C 219.667,19.5 220.5,20.3333 221,21.5C 221.333,20.8333 221.667,20.1667 222,19.5C 222.452,22.1494 223.286,24.6494 224.5,27C 226.764,27.2362 228.931,27.7362 231,28.5C 232.406,27.3318 233.572,27.6652 234.5,29.5C 235.737,25.7994 237.07,25.9661 238.5,30C 250.387,30.5569 262.054,29.5569 273.5,27C 276.266,25.5331 278.766,23.6998 281,21.5C 282.545,22.8213 283.711,22.4879 284.5,20.5C 282.608,18.8538 280.608,18.5205 278.5,19.5C 275.36,18.9106 272.36,18.2439 269.5,17.5C 279.582,17.8074 289.582,17.4741 299.5,16.5 Z"/></g>
<g><path style="opacity:1" fill="#dddddd" d="M 264.5,17.5 C 265.5,17.5 266.5,17.5 267.5,17.5C 268.167,17.5 268.833,17.5 269.5,17.5C 272.36,18.2439 275.36,18.9106 278.5,19.5C 280.608,18.5205 282.608,18.8538 284.5,20.5C 283.711,22.4879 282.545,22.8213 281,21.5C 278.766,23.6998 276.266,25.5331 273.5,27C 262.054,29.5569 250.387,30.5569 238.5,30C 237.07,25.9661 235.737,25.7994 234.5,29.5C 233.572,27.6652 232.406,27.3318 231,28.5C 228.931,27.7362 226.764,27.2362 224.5,27C 223.286,24.6494 222.452,22.1494 222,19.5C 221.667,20.1667 221.333,20.8333 221,21.5C 220.5,20.3333 219.667,19.5 218.5,19C 234.005,18.8314 249.339,18.3314 264.5,17.5 Z"/></g>
<g><path style="opacity:0.992" fill="#e3e3e3" d="M 302.5,-0.5 C 303.167,-0.5 303.833,-0.5 304.5,-0.5C 307.833,2.5 311.167,5.5 314.5,8.5C 312.941,10.6076 311.608,12.9409 310.5,15.5C 311.262,15.9106 312.262,16.0773 313.5,16C 312.833,17 312.167,18 311.5,19C 312.744,19.4561 313.577,18.9561 314,17.5C 314.915,18.3279 315.581,19.3279 316,20.5C 317.011,19.6634 318.178,19.33 319.5,19.5C 319.5,20.5 319.5,21.5 319.5,22.5C 326.786,26.8532 334.786,31.0199 343.5,35C 343.167,35.3333 342.833,35.6667 342.5,36C 343.421,37.756 344.588,37.9227 346,36.5C 349.839,39.9971 354.339,42.1637 359.5,43C 362.215,43.8747 363.548,45.7081 363.5,48.5C 366.231,49.6069 369.064,50.6069 372,51.5C 373.107,51.4148 374.107,51.0814 375,50.5C 380.048,52.794 385.215,54.794 390.5,56.5C 391.107,56.3764 391.44,56.0431 391.5,55.5C 392.737,54.0351 393.737,52.3684 394.5,50.5C 394.833,49.1667 395.167,47.8333 395.5,46.5C 397.451,47.7158 398.951,49.3825 400,51.5C 416.872,83.5759 430.705,116.909 441.5,151.5C 441.719,152.675 441.386,153.675 440.5,154.5C 439.543,152.082 438.209,149.916 436.5,148C 436.957,147.586 437.291,147.086 437.5,146.5C 435.66,142.239 433.994,137.905 432.5,133.5C 430.87,132.102 429.036,131.102 427,130.5C 425.294,131.308 424.461,132.641 424.5,134.5C 421.104,134.633 420.771,135.633 423.5,137.5C 422.478,138.354 421.645,139.354 421,140.5C 420.663,137.139 420.163,133.806 419.5,130.5C 419.182,129.353 418.516,128.519 417.5,128C 420.156,125.771 419.823,123.938 416.5,122.5C 414.978,126.609 413.645,130.776 412.5,135C 413.214,136.343 412.88,137.676 411.5,139C 411.833,139.333 412.167,139.667 412.5,140C 410.96,147.66 410.293,155.16 410.5,162.5C 409.2,159.434 408.2,156.267 407.5,153C 407.668,144.475 408.501,135.975 410,127.5C 407.362,131.806 405.862,136.473 405.5,141.5C 403.818,143.751 402.485,143.751 401.5,141.5C 402.522,129.178 404.522,117.011 407.5,105C 406.293,101.334 406.293,98.0007 407.5,95C 406.833,93.3333 406.167,91.6667 405.5,90C 406.908,86.6166 406.075,83.7832 403,81.5C 400.86,75.5639 399.027,69.5639 397.5,63.5C 395.167,63.5 392.833,63.5 390.5,63.5C 389.776,66.8426 388.943,70.176 388,73.5C 387.899,70.3004 387.232,67.3004 386,64.5C 385.586,64.9574 385.086,65.2907 384.5,65.5C 379.618,62.1327 374.284,60.1327 368.5,59.5C 364.71,59.7297 361.376,61.063 358.5,63.5C 357.571,62.3112 357.238,60.9778 357.5,59.5C 355.5,59.5 353.5,59.5 351.5,59.5C 351.5,58.1667 351.5,56.8333 351.5,55.5C 350.167,55.5 348.833,55.5 347.5,55.5C 347.643,53.7376 347.309,52.0709 346.5,50.5C 342.178,47.8329 338.178,44.8329 334.5,41.5C 325.403,37.1861 316.069,36.5194 306.5,39.5C 305.106,39.3793 303.772,39.046 302.5,38.5C 300.039,43.8014 298.706,43.8014 298.5,38.5C 288.27,50.5684 275.27,57.0684 259.5,58C 264.73,57.0914 264.73,55.9247 259.5,54.5C 260.025,53.8076 260.692,53.3076 261.5,53C 257.981,50.3318 254.148,49.8318 250,51.5C 248.97,51.1639 248.47,50.4972 248.5,49.5C 260.39,49.7603 271.39,46.9269 281.5,41C 284.428,38.9106 286.761,36.4106 288.5,33.5C 292.911,28.3524 296.578,22.6857 299.5,16.5C 300.038,14.8828 300.371,13.2161 300.5,11.5C 301.338,11.1583 301.672,10.4916 301.5,9.5C 302.051,6.19327 302.384,2.85994 302.5,-0.5 Z"/></g>
<g><path style="opacity:1" fill="#d5d5d5" d="M 185.5,19.5 C 187.204,22.2558 188.537,25.2558 189.5,28.5C 187.778,26.5504 185.612,25.2171 183,24.5C 182.5,25 182,25.5 181.5,26C 171.759,26.9548 163.426,29.7881 156.5,34.5C 153.91,34.8349 151.577,36.3349 149.5,39C 146.077,38.8551 144.077,40.3551 143.5,43.5C 138.588,43.2242 134.588,45.0575 131.5,49C 121.219,50.305 112.886,54.4716 106.5,61.5C 105.167,65.1667 103.833,68.8333 102.5,72.5C 101.817,72.1373 101.15,71.8039 100.5,71.5C 100.737,70.209 100.404,69.209 99.5,68.5C 98.9669,65.5004 97.3002,64.0004 94.5,64C 92.1064,65.9522 90.6064,68.4522 90,71.5C 88.8904,73.0368 87.3904,73.7035 85.5,73.5C 85.719,74.675 85.3857,75.675 84.5,76.5C 83.7025,76.0431 83.3691,75.3764 83.5,74.5C 86.4595,65.9143 90.4595,57.9143 95.5,50.5C 95.5,51.5 95.5,52.5 95.5,53.5C 95.9926,55.8056 96.3259,58.139 96.5,60.5C 97.8734,60.6567 99.2068,60.49 100.5,60C 104.397,56.8908 108.064,53.5574 111.5,50C 112.899,49.4054 114.232,49.5721 115.5,50.5C 115.296,49.4706 115.796,48.4706 117,47.5C 117.333,47.8333 117.667,48.1667 118,48.5C 123.44,45.0564 129.107,42.0564 135,39.5C 137.672,38.1613 139.672,36.1613 141,33.5C 142,33.8333 143,34.1667 144,34.5C 145.351,32.981 146.851,31.6477 148.5,30.5C 149.086,30.7093 149.586,31.0426 150,31.5C 154.285,28.8812 158.785,26.7146 163.5,25C 164.227,23.6012 164.727,22.1012 165,20.5C 165.674,21.5784 166.674,22.2451 168,22.5C 172.926,21.8985 178.093,21.5651 183.5,21.5C 183.131,19.0065 183.797,18.3398 185.5,19.5 Z"/></g>
<g><path style="opacity:1" fill="#dddddd" d="M 189.5,28.5 C 193.126,32.1389 195.959,36.1389 198,40.5C 196,39.8333 194.667,38.5 194,36.5C 191.263,37.4677 189.263,36.4677 188,33.5C 187.125,35.5127 185.791,35.5127 184,33.5C 181.79,34.7488 179.624,34.5822 177.5,33C 177.833,32.6667 178.167,32.3333 178.5,32C 177.5,31.8333 176.5,31.6667 175.5,31.5C 172.599,31.9535 169.933,32.9535 167.5,34.5C 166.558,34.3918 165.725,34.0585 165,33.5C 161.29,36.5427 157.123,38.7094 152.5,40C 151.501,42.7611 149.501,44.0944 146.5,44C 145.531,45.7583 144.364,46.2583 143,45.5C 140.554,48.7745 137.388,51.1078 133.5,52.5C 132.446,52.3201 131.446,51.9867 130.5,51.5C 129.494,51.9377 129.494,52.6043 130.5,53.5C 123.624,53.6451 117.291,55.4785 111.5,59C 115.347,61.9295 114.681,63.9295 109.5,65C 108.025,67.3092 106.358,69.4759 104.5,71.5C 107.009,73.5896 106.675,75.4229 103.5,77C 104.576,78.7261 104.743,80.5594 104,82.5C 102.887,81.2396 102.72,80.073 103.5,79C 102.09,78.6322 101.09,77.7989 100.5,76.5C 101.052,74.9974 101.052,73.3307 100.5,71.5C 101.15,71.8039 101.817,72.1373 102.5,72.5C 103.833,68.8333 105.167,65.1667 106.5,61.5C 112.886,54.4716 121.219,50.305 131.5,49C 134.588,45.0575 138.588,43.2242 143.5,43.5C 144.077,40.3551 146.077,38.8551 149.5,39C 151.577,36.3349 153.91,34.8349 156.5,34.5C 163.426,29.7881 171.759,26.9548 181.5,26C 182,25.5 182.5,25 183,24.5C 185.612,25.2171 187.778,26.5504 189.5,28.5 Z"/></g>
<g><path style="opacity:0.999" fill="#e4e4e4" d="M 193.5,6.5 C 194.065,10.5368 195.399,14.2034 197.5,17.5C 198.898,22.8968 201.565,27.5634 205.5,31.5C 211.902,39.3584 219.902,44.6918 229.5,47.5C 224.84,46.8333 220.174,46.6666 215.5,47C 214.62,48.3561 214.286,49.8561 214.5,51.5C 216.199,51.3398 217.866,51.5065 219.5,52C 218.167,52.6667 218.167,53.3333 219.5,54C 221.788,54.8221 224.122,55.4888 226.5,56C 224.5,56.6667 222.5,56.6667 220.5,56C 215.386,53.7178 210.386,51.2178 205.5,48.5C 204.808,49.0253 204.308,49.6919 204,50.5C 202.786,48.9512 201.286,47.7845 199.5,47C 192.348,46.0669 185.348,44.5669 178.5,42.5C 177.158,43.9023 176.324,43.5689 176,41.5C 171.454,43.2419 166.621,44.2419 161.5,44.5C 160.558,44.3918 159.725,44.0585 159,43.5C 156.844,45.6174 154.344,47.2841 151.5,48.5C 149.913,50.0851 149.08,51.7518 149,53.5C 146.418,52.6882 144.251,53.5215 142.5,56C 142.957,56.414 143.291,56.914 143.5,57.5C 137.746,61.5377 131.413,64.5377 124.5,66.5C 123.663,68.8442 122.329,70.8442 120.5,72.5C 123.051,78.5012 124.551,84.8346 125,91.5C 126.833,92.6667 128.667,93.8333 130.5,95C 127.819,97.1028 125.319,96.9361 123,94.5C 122.25,95.1258 121.416,95.6258 120.5,96C 121.966,96.6355 123.3,97.4688 124.5,98.5C 126.895,97.4775 127.895,98.4775 127.5,101.5C 129.833,101.5 132.167,101.5 134.5,101.5C 134.67,102.822 134.337,103.989 133.5,105C 131.402,104.016 129.402,104.349 127.5,106C 129.025,107.009 130.692,107.509 132.5,107.5C 132.5,108.833 132.5,110.167 132.5,111.5C 136.102,111.678 136.102,112.678 132.5,114.5C 133.376,115.251 134.376,115.751 135.5,116C 133.023,117.643 130.69,119.476 128.5,121.5C 127.833,119.5 127.167,117.5 126.5,115.5C 125.833,115.833 125.167,116.167 124.5,116.5C 123.511,112.893 123.177,109.226 123.5,105.5C 122.325,105.281 121.325,105.614 120.5,106.5C 119.277,108.46 117.944,110.293 116.5,112C 118.429,115.159 121.095,117.659 124.5,119.5C 125.314,121.766 125.814,124.1 126,126.5C 126.415,124.709 127.415,123.376 129,122.5C 133.728,122.301 134.562,124.301 131.5,128.5C 134.818,131.387 136.818,135.053 137.5,139.5C 138.978,139.238 140.311,139.571 141.5,140.5C 142.074,142.059 142.74,143.559 143.5,145C 143.167,145.333 142.833,145.667 142.5,146C 145.293,146.744 146.793,148.577 147,151.5C 148.827,152.659 150.493,153.992 152,155.5C 152.381,163.049 153.214,170.549 154.5,178C 155.305,184.159 155.472,190.326 155,196.5C 153.042,200.413 151.875,204.579 151.5,209C 152.167,209.333 152.833,209.667 153.5,210C 152.5,211 151.5,212 150.5,213C 151.516,213.519 152.182,214.353 152.5,215.5C 152.86,219.203 152.194,222.87 150.5,226.5C 151.025,227.192 151.692,227.692 152.5,228C 151.315,229.353 149.981,230.52 148.5,231.5C 149.729,232.281 151.062,232.781 152.5,233C 150.824,234.177 149.491,235.677 148.5,237.5C 149.376,238.251 150.376,238.751 151.5,239C 150.376,239.249 149.376,239.749 148.5,240.5C 149.833,241.5 151.167,242.5 152.5,243.5C 149.356,244.406 149.023,246.239 151.5,249C 151.167,249.333 150.833,249.667 150.5,250C 151.833,250.333 153.167,250.667 154.5,251C 145.274,252.766 145.274,254.266 154.5,255.5C 152.587,256.051 150.587,256.218 148.5,256C 150.658,257.312 150.991,258.978 149.5,261C 150.623,262.044 151.956,262.71 153.5,263C 151.833,263.333 150.167,263.667 148.5,264C 151.096,265.797 150.763,267.131 147.5,268C 149.384,268.216 151.051,268.883 152.5,270C 151.216,270.684 150.049,270.517 149,269.5C 148.493,270.996 148.993,272.163 150.5,273C 149.833,273.333 149.167,273.667 148.5,274C 150.163,276.279 151.83,278.613 153.5,281C 149.689,280.315 149.022,281.482 151.5,284.5C 150.726,285.711 149.893,285.711 149,284.5C 148.316,285.784 148.483,286.951 149.5,288C 145.998,288.656 145.998,289.989 149.5,292C 147.833,292.333 146.167,292.667 144.5,293C 146.351,293.837 148.184,294.671 150,295.5C 150.21,296.803 150.043,298.136 149.5,299.5C 149.818,300.647 150.484,301.481 151.5,302C 149.104,302.879 146.771,303.546 144.5,304C 147.5,304.833 150.5,305.667 153.5,306.5C 152.672,307.415 151.672,308.081 150.5,308.5C 145.559,307.691 145.392,308.358 150,310.5C 152.498,309.402 154.998,309.568 157.5,311C 153.363,313.869 154.029,315.203 159.5,315C 156.258,315.283 155.924,316.117 158.5,317.5C 159.5,317 160.5,316.5 161.5,316C 160.72,314.927 160.887,313.76 162,312.5C 162.667,314.833 162.667,317.167 162,319.5C 161.667,318.833 161.333,318.167 161,317.5C 159.055,318.863 156.888,319.697 154.5,320C 155.448,320.483 156.448,320.649 157.5,320.5C 157.633,323.896 158.633,324.229 160.5,321.5C 161.273,323.813 161.94,326.146 162.5,328.5C 166.042,330.738 165.709,332.905 161.5,335C 163.105,337.733 164.105,340.733 164.5,344C 163.5,344.333 162.5,344.667 161.5,345C 163.205,348.168 164.038,351.668 164,355.5C 164.333,354.167 164.667,352.833 165,351.5C 165.654,350.304 166.154,350.304 166.5,351.5C 166.03,353.774 165.03,355.774 163.5,357.5C 164.39,359.7 165.39,361.866 166.5,364C 162.81,364.424 162.643,365.258 166,366.5C 166.456,367.744 165.956,368.577 164.5,369C 168.725,371.546 168.392,372.88 163.5,373C 165.808,374.867 168.475,375.867 171.5,376C 164.056,376.882 163.723,378.882 170.5,382C 168.833,382.333 167.167,382.667 165.5,383C 166.5,383.333 167.5,383.667 168.5,384C 168.167,384.333 167.833,384.667 167.5,385C 169.936,384.947 172.269,385.113 174.5,385.5C 171.553,386.321 168.553,386.821 165.5,387C 167.833,387.333 170.167,387.667 172.5,388C 169.258,388.283 168.924,389.117 171.5,390.5C 170.609,391.59 169.609,391.59 168.5,390.5C 166.276,391.081 165.443,392.414 166,394.5C 167.439,392.986 168.939,392.653 170.5,393.5C 171.59,394.391 171.59,395.391 170.5,396.5C 168.343,397.79 166.01,398.624 163.5,399C 166.753,400.036 170.086,400.703 173.5,401C 171.725,402.439 169.725,403.439 167.5,404C 175.642,405.772 175.975,407.439 168.5,409C 173.627,410.526 173.627,411.526 168.5,412C 173.362,412.689 173.362,413.856 168.5,415.5C 168.146,417.541 168.146,419.374 168.5,421C 165.456,421.359 165.122,422.026 167.5,423C 166.833,423.333 166.167,423.667 165.5,424C 166.833,424.667 168.167,425.333 169.5,426C 168.5,426.333 167.5,426.667 166.5,427C 167.345,428.558 166.679,429.558 164.5,430C 165.167,430.667 165.833,431.333 166.5,432C 160.35,432.465 160.35,433.965 166.5,436.5C 165.271,437.281 163.938,437.781 162.5,438C 163.5,438.333 164.5,438.667 165.5,439C 164.55,441.432 164.55,443.932 165.5,446.5C 159.196,446.831 159.53,447.331 166.5,448C 163.833,448.667 163.833,449.333 166.5,450C 160.192,449.983 159.859,451.316 165.5,454C 164.051,455.117 162.384,455.784 160.5,456C 161.833,456.333 163.167,456.667 164.5,457C 163.328,457.419 162.328,458.085 161.5,459C 167.796,460.03 167.796,460.697 161.5,461C 162.328,461.915 163.328,462.581 164.5,463C 163.376,463.249 162.376,463.749 161.5,464.5C 163.423,466.121 165.089,467.954 166.5,470C 164.913,470.862 163.246,471.529 161.5,472C 168.134,472.823 168.134,473.323 161.5,473.5C 161.719,474.675 161.386,475.675 160.5,476.5C 156.815,477.241 156.149,478.741 158.5,481C 159.996,481.507 161.163,481.007 162,479.5C 163.044,480.623 163.71,481.956 164,483.5C 164.725,482.941 165.558,482.608 166.5,482.5C 171.365,483.139 176.032,484.306 180.5,486C 179.33,487.755 177.663,488.755 175.5,489C 178.7,489.101 181.7,489.768 184.5,491C 181.029,492.036 177.529,492.869 174,493.5C 173.586,493.043 173.086,492.709 172.5,492.5C 171.27,496.083 172.604,497.249 176.5,496C 175.112,495.111 175.278,494.611 177,494.5C 179.514,494.447 182.014,495.28 184.5,497C 182.866,497.494 181.199,497.66 179.5,497.5C 171.953,497.594 164.62,496.928 157.5,495.5C 159.925,495.316 159.925,494.649 157.5,493.5C 157.709,492.914 158.043,492.414 158.5,492C 156.875,489.89 155.542,487.557 154.5,485C 155.167,484.333 155.833,483.667 156.5,483C 152.723,481.391 148.723,479.391 144.5,477C 147.447,476.888 148.78,475.388 148.5,472.5C 152.449,472.307 152.449,471.807 148.5,471C 149.833,470.667 151.167,470.333 152.5,470C 151.833,469.667 151.167,469.333 150.5,469C 155.621,467.577 155.621,466.577 150.5,466C 154.265,464.623 153.932,463.623 149.5,463C 156.167,462.333 156.167,461.667 149.5,461C 150.5,460.667 151.5,460.333 152.5,460C 151.167,459 151.167,458 152.5,457C 150.122,456.026 150.456,455.359 153.5,455C 152.672,454.085 151.672,453.419 150.5,453C 151.938,452.781 153.271,452.281 154.5,451.5C 152.359,450.192 150.359,448.692 148.5,447C 148.802,445.345 150.136,444.012 152.5,443C 150.203,441.84 150.536,440.84 153.5,440C 150.716,439.564 149.55,438.064 150,435.5C 150.414,435.957 150.914,436.291 151.5,436.5C 152.7,435.469 154.034,434.635 155.5,434C 151.148,433.581 150.815,432.914 154.5,432C 152.327,430.135 151.993,427.969 153.5,425.5C 152.271,424.719 150.938,424.219 149.5,424C 152.167,423.333 152.167,422.667 149.5,422C 150.784,421.316 151.951,421.483 153,422.5C 154.064,419.436 155.897,416.936 158.5,415C 157.167,414.667 155.833,414.333 154.5,414C 155.833,413.333 155.833,412.667 154.5,412C 155.167,411.667 155.833,411.333 156.5,411C 153.85,408.918 154.184,407.251 157.5,406C 156.833,405.667 156.167,405.333 155.5,405C 161.837,404.163 161.503,403.497 154.5,403C 155.793,402.51 157.127,402.343 158.5,402.5C 158.5,401.5 158.5,400.5 158.5,399.5C 157.448,399.649 156.448,399.483 155.5,399C 157.167,398.667 158.833,398.333 160.5,398C 161.673,394.89 161.173,394.723 159,397.5C 157.601,396.773 156.101,396.273 154.5,396C 155.328,395.085 156.328,394.419 157.5,394C 156.167,393 156.167,392 157.5,391C 156.692,390.692 156.025,390.192 155.5,389.5C 156.5,388.667 157.5,387.833 158.5,387C 155.703,384.392 155.37,381.726 157.5,379C 156.614,376.888 156.614,374.722 157.5,372.5C 154.226,372.365 151.226,371.365 148.5,369.5C 151.184,369.024 153.517,368.024 155.5,366.5C 154.41,364.997 153.243,364.664 152,365.5C 150.702,364.44 149.535,363.274 148.5,362C 150.197,358.274 149.53,355.108 146.5,352.5C 146.798,350.128 148.131,347.962 150.5,346C 148.321,344.013 146.488,344.18 145,346.5C 142.22,345.862 140.053,344.362 138.5,342C 140.715,341.83 142.715,341.163 144.5,340C 142.546,340.453 140.713,340.62 139,340.5C 137.926,339.382 136.76,338.382 135.5,337.5C 136.5,336.667 137.5,335.833 138.5,335C 137.328,334.581 136.328,333.915 135.5,333C 138.711,331.847 142.044,331.18 145.5,331C 141.833,330 138.167,329 134.5,328C 136.623,326.806 138.957,326.14 141.5,326C 139.167,325 136.833,324 134.5,323C 136.8,320.712 139.467,319.045 142.5,318C 140.714,316.707 139.047,316.207 137.5,316.5C 138.665,315.416 139.998,314.583 141.5,314C 139.744,313.798 138.078,313.298 136.5,312.5C 137.981,311.52 139.315,310.353 140.5,309C 135.373,308.526 135.373,307.526 140.5,306C 138.942,305.79 137.609,305.29 136.5,304.5C 138.714,303.126 141.047,301.959 143.5,301C 141.571,300.65 139.571,299.983 137.5,299C 138.91,298.632 139.91,297.799 140.5,296.5C 140.096,292.904 140.096,289.071 140.5,285C 143.888,283.678 144.221,281.845 141.5,279.5C 142.376,278.749 143.376,278.249 144.5,278C 143.422,277.326 142.755,276.326 142.5,275C 143.166,273.331 143.166,271.831 142.5,270.5C 144.703,267.523 145.037,264.356 143.5,261C 145.946,257.689 146.613,254.189 145.5,250.5C 146.657,237.673 147.657,224.839 148.5,212C 148.156,210.635 147.489,209.468 146.5,208.5C 147.247,208.264 148.08,207.93 149,207.5C 149.167,206.333 149.333,205.167 149.5,204C 148.763,201.559 148.763,199.225 149.5,197C 147.122,196.026 147.456,195.359 150.5,195C 148.043,193.846 148.043,192.512 150.5,191C 149.572,190.612 148.905,189.945 148.5,189C 149.692,183.718 149.692,178.385 148.5,173C 147.552,172.517 146.552,172.351 145.5,172.5C 145.261,170.533 145.594,168.699 146.5,167C 144.862,164.867 144.029,162.367 144,159.5C 142.989,158.663 141.822,158.33 140.5,158.5C 138.407,152.425 134.074,149.425 127.5,149.5C 127.604,152.09 126.937,154.423 125.5,156.5C 125.826,159.646 125.993,162.98 126,166.5C 125.577,167.956 124.744,168.456 123.5,168C 122.901,166.378 122.234,164.878 121.5,163.5C 121.41,159.786 120.41,156.452 118.5,153.5C 116.397,150.06 114.563,146.393 113,142.5C 109.81,139.212 108.31,139.879 108.5,144.5C 108.539,150.358 110.539,155.358 114.5,159.5C 114.333,159.833 114.167,160.167 114,160.5C 111.672,159.001 109.505,157.334 107.5,155.5C 106.432,154.566 105.099,154.232 103.5,154.5C 102.092,144.79 99.5917,135.457 96,126.5C 95.2496,125.874 94.4162,125.374 93.5,125C 94.4426,122.2 94.2759,119.366 93,116.5C 90.8775,110.702 87.8775,105.368 84,100.5C 83.8333,99.3333 83.6667,98.1667 83.5,97C 84.4864,93.6606 85.153,90.494 85.5,87.5C 86.7287,86.7189 88.062,86.2189 89.5,86C 86.9364,83.724 87.2697,81.724 90.5,80C 90.1667,79.6667 89.8333,79.3333 89.5,79C 90.1905,77.9326 90.6905,76.7659 91,75.5C 94.6973,76.6433 95.1973,75.8099 92.5,73C 94.9853,71.6708 97.3186,70.1708 99.5,68.5C 100.404,69.209 100.737,70.209 100.5,71.5C 101.052,73.3307 101.052,74.9974 100.5,76.5C 101.09,77.7989 102.09,78.6322 103.5,79C 102.72,80.073 102.887,81.2396 104,82.5C 104.743,80.5594 104.576,78.7261 103.5,77C 106.675,75.4229 107.009,73.5896 104.5,71.5C 106.358,69.4759 108.025,67.3092 109.5,65C 114.681,63.9295 115.347,61.9295 111.5,59C 117.291,55.4785 123.624,53.6451 130.5,53.5C 129.494,52.6043 129.494,51.9377 130.5,51.5C 131.446,51.9867 132.446,52.3201 133.5,52.5C 137.388,51.1078 140.554,48.7745 143,45.5C 144.364,46.2583 145.531,45.7583 146.5,44C 149.501,44.0944 151.501,42.7611 152.5,40C 157.123,38.7094 161.29,36.5427 165,33.5C 165.725,34.0585 166.558,34.3918 167.5,34.5C 169.933,32.9535 172.599,31.9535 175.5,31.5C 176.5,31.6667 177.5,31.8333 178.5,32C 178.167,32.3333 177.833,32.6667 177.5,33C 179.624,34.5822 181.79,34.7488 184,33.5C 185.791,35.5127 187.125,35.5127 188,33.5C 189.263,36.4677 191.263,37.4677 194,36.5C 194.667,38.5 196,39.8333 198,40.5C 195.959,36.1389 193.126,32.1389 189.5,28.5C 188.537,25.2558 187.204,22.2558 185.5,19.5C 184.167,16.5 184.167,13.5 185.5,10.5C 187.861,10.3259 190.194,9.99255 192.5,9.5C 192.263,8.20895 192.596,7.20895 193.5,6.5 Z"/></g>
<g><path style="opacity:1" fill="#c9c9c9" d="M 288.5,33.5 C 286.761,36.4106 284.428,38.9106 281.5,41C 271.39,46.9269 260.39,49.7603 248.5,49.5C 242.114,49.1615 235.78,48.4948 229.5,47.5C 219.902,44.6918 211.902,39.3584 205.5,31.5C 207.218,30.776 209.052,30.1094 211,29.5C 211.5,30 212,30.5 212.5,31C 211.376,31.2492 210.376,31.7492 209.5,32.5C 209.833,32.8333 210.167,33.1667 210.5,33.5C 214.158,32.797 217.658,33.4637 221,35.5C 221.333,35.1667 221.667,34.8333 222,34.5C 222.941,36.0614 224.108,37.3947 225.5,38.5C 226.852,37.1038 228.519,36.4371 230.5,36.5C 236.733,38.0774 242.733,38.7441 248.5,38.5C 250.454,37.1491 252.621,36.4825 255,36.5C 256.727,37.5927 258.727,38.2594 261,38.5C 261.483,37.552 261.649,36.552 261.5,35.5C 270.078,35.5423 278.411,34.5423 286.5,32.5C 287.183,32.8627 287.85,33.1961 288.5,33.5 Z"/></g>
<g><path style="opacity:1" fill="#bfbfbf" d="M 348.5,24.5 C 364.628,31.0666 380.295,38.4 395.5,46.5C 395.167,47.8333 394.833,49.1667 394.5,50.5C 389.79,48.7622 384.956,47.0955 380,45.5C 378.535,46.3295 377.035,46.4962 375.5,46C 369.112,42.1394 362.446,38.8061 355.5,36C 356.833,35.3333 356.833,34.6667 355.5,34C 353.038,32.706 350.705,31.206 348.5,29.5C 347.265,27.6837 347.265,26.017 348.5,24.5 Z"/></g>
<g><path style="opacity:0.999" fill="#eaeaea" d="M 441.5,151.5 C 445.032,158.927 447.699,166.76 449.5,175C 449.138,176.225 448.638,177.391 448,178.5C 432.024,187.073 415.524,194.406 398.5,200.5C 398.167,198.5 397.833,196.5 397.5,194.5C 393.54,194.189 390.54,192.355 388.5,189C 390.594,185.659 393.261,182.825 396.5,180.5C 392.928,180.108 390.261,178.441 388.5,175.5C 389.57,172.133 390.903,168.966 392.5,166C 392.384,164.732 392.051,163.398 391.5,162C 394.379,157.123 395.546,151.957 395,146.5C 396.067,145.057 397.234,143.724 398.5,142.5C 397.752,140.584 397.752,138.584 398.5,136.5C 397.167,136.5 395.833,136.5 394.5,136.5C 393.076,141.171 390.909,145.505 388,149.5C 387.667,152.833 387.333,156.167 387,159.5C 386.667,158.167 386.333,156.833 386,155.5C 384.989,156.337 383.822,156.67 382.5,156.5C 381.489,154.801 380.155,153.301 378.5,152C 380.64,148.878 382.64,145.711 384.5,142.5C 387.843,140.503 389.51,137.503 389.5,133.5C 386.474,134.577 383.474,134.577 380.5,133.5C 379.52,134.981 378.353,136.315 377,137.5C 374.932,145.71 373.765,154.043 373.5,162.5C 373.167,163.833 372.833,165.167 372.5,166.5C 371.511,170.377 370.511,174.377 369.5,178.5C 370.372,180.45 371.039,182.45 371.5,184.5C 370.883,184.389 370.383,184.056 370,183.5C 369.827,189.348 369.327,195.015 368.5,200.5C 367.85,200.196 367.183,199.863 366.5,199.5C 365.811,189.136 365.144,178.803 364.5,168.5C 365.5,167.667 366.5,166.833 367.5,166C 364.89,165.853 362.556,165.019 360.5,163.5C 359.079,166.009 357.412,168.343 355.5,170.5C 357.807,172.328 357.474,173.994 354.5,175.5C 353.833,174.833 353.167,174.167 352.5,173.5C 351.253,175.006 351.253,176.506 352.5,178C 351.5,178.833 350.5,179.667 349.5,180.5C 351.331,184.241 351.997,188.241 351.5,192.5C 350.248,193.968 348.248,194.968 345.5,195.5C 345.5,197.5 345.5,199.5 345.5,201.5C 346.833,201.5 348.167,201.5 349.5,201.5C 349.5,202.833 349.5,204.167 349.5,205.5C 348.167,205.5 346.833,205.5 345.5,205.5C 345.813,208.247 345.48,210.914 344.5,213.5C 343.167,208.167 341.833,208.167 340.5,213.5C 339.731,235.764 338.731,257.764 337.5,279.5C 336.167,279.5 334.833,279.5 333.5,279.5C 335.068,282.31 336.401,285.31 337.5,288.5C 337.219,291.448 337.219,294.448 337.5,297.5C 337.471,299.029 336.804,300.196 335.5,301C 336.416,301.374 337.25,301.874 338,302.5C 338.488,307.553 338.988,312.386 339.5,317C 338.833,317.333 338.167,317.667 337.5,318C 339.201,320.765 340.534,323.765 341.5,327C 340.377,328.044 339.044,328.71 337.5,329C 339.291,329.415 340.624,330.415 341.5,332C 341.695,334.25 341.361,336.584 340.5,339C 343.436,342.003 343.103,344.503 339.5,346.5C 341.055,348.943 341.722,351.61 341.5,354.5C 340.127,354.343 338.793,354.51 337.5,355C 339.25,356.754 339.917,358.921 339.5,361.5C 343.099,361.262 343.433,362.262 340.5,364.5C 342.168,369.267 341.835,373.767 339.5,378C 342.643,381.338 342.643,384.338 339.5,387C 340.279,389.562 341.946,391.228 344.5,392C 343.552,392.483 342.552,392.649 341.5,392.5C 341.48,394.143 342.147,395.476 343.5,396.5C 342.271,397.281 340.938,397.781 339.5,398C 342.986,404.804 343.819,411.971 342,419.5C 340.989,420.337 339.822,420.67 338.5,420.5C 338.227,422.451 338.893,423.951 340.5,425C 339.833,426.333 339.167,427.667 338.5,429C 339.167,429.333 339.833,429.667 340.5,430C 340.072,432.629 339.072,434.962 337.5,437C 339.347,439.518 339.68,442.185 338.5,445C 339.509,446.168 340.509,447.335 341.5,448.5C 338.408,450.364 335.074,451.531 331.5,452C 333.941,452.036 335.941,452.869 337.5,454.5C 336.425,457.438 336.259,460.438 337,463.5C 337.5,464.667 338.333,465.5 339.5,466C 338.692,466.308 338.025,466.808 337.5,467.5C 338.582,467.749 339.915,467.915 341.5,468C 339.913,468.862 338.246,469.529 336.5,470C 337.448,470.483 338.448,470.649 339.5,470.5C 339.5,471.833 339.5,473.167 339.5,474.5C 338.448,474.351 337.448,474.517 336.5,475C 338.001,476.252 339.668,477.252 341.5,478C 339.049,480.621 336.049,482.121 332.5,482.5C 331.833,484.819 331.666,487.153 332,489.5C 333.067,490.191 334.234,490.691 335.5,491C 335.167,491.333 334.833,491.667 334.5,492C 336.973,492.22 338.64,493.386 339.5,495.5C 329.69,496.766 320.024,498.099 310.5,499.5C 271.5,499.5 232.5,499.5 193.5,499.5C 188.833,498.833 184.167,498.167 179.5,497.5C 181.199,497.66 182.866,497.494 184.5,497C 182.014,495.28 179.514,494.447 177,494.5C 175.278,494.611 175.112,495.111 176.5,496C 172.604,497.249 171.27,496.083 172.5,492.5C 173.086,492.709 173.586,493.043 174,493.5C 177.529,492.869 181.029,492.036 184.5,491C 181.7,489.768 178.7,489.101 175.5,489C 177.663,488.755 179.33,487.755 180.5,486C 176.032,484.306 171.365,483.139 166.5,482.5C 165.558,482.608 164.725,482.941 164,483.5C 163.71,481.956 163.044,480.623 162,479.5C 161.163,481.007 159.996,481.507 158.5,481C 156.149,478.741 156.815,477.241 160.5,476.5C 161.386,475.675 161.719,474.675 161.5,473.5C 168.134,473.323 168.134,472.823 161.5,472C 163.246,471.529 164.913,470.862 166.5,470C 165.089,467.954 163.423,466.121 161.5,464.5C 162.376,463.749 163.376,463.249 164.5,463C 163.328,462.581 162.328,461.915 161.5,461C 167.796,460.697 167.796,460.03 161.5,459C 162.328,458.085 163.328,457.419 164.5,457C 163.167,456.667 161.833,456.333 160.5,456C 162.384,455.784 164.051,455.117 165.5,454C 159.859,451.316 160.192,449.983 166.5,450C 163.833,449.333 163.833,448.667 166.5,448C 159.53,447.331 159.196,446.831 165.5,446.5C 164.55,443.932 164.55,441.432 165.5,439C 164.5,438.667 163.5,438.333 162.5,438C 163.938,437.781 165.271,437.281 166.5,436.5C 160.35,433.965 160.35,432.465 166.5,432C 165.833,431.333 165.167,430.667 164.5,430C 166.679,429.558 167.345,428.558 166.5,427C 167.5,426.667 168.5,426.333 169.5,426C 168.167,425.333 166.833,424.667 165.5,424C 166.167,423.667 166.833,423.333 167.5,423C 165.122,422.026 165.456,421.359 168.5,421C 168.146,419.374 168.146,417.541 168.5,415.5C 173.362,413.856 173.362,412.689 168.5,412C 173.627,411.526 173.627,410.526 168.5,409C 175.975,407.439 175.642,405.772 167.5,404C 169.725,403.439 171.725,402.439 173.5,401C 170.086,400.703 166.753,400.036 163.5,399C 166.01,398.624 168.343,397.79 170.5,396.5C 171.59,395.391 171.59,394.391 170.5,393.5C 168.939,392.653 167.439,392.986 166,394.5C 165.443,392.414 166.276,391.081 168.5,390.5C 169.609,391.59 170.609,391.59 171.5,390.5C 168.924,389.117 169.258,388.283 172.5,388C 170.167,387.667 167.833,387.333 165.5,387C 168.553,386.821 171.553,386.321 174.5,385.5C 172.269,385.113 169.936,384.947 167.5,385C 167.833,384.667 168.167,384.333 168.5,384C 167.5,383.667 166.5,383.333 165.5,383C 167.167,382.667 168.833,382.333 170.5,382C 163.723,378.882 164.056,376.882 171.5,376C 168.475,375.867 165.808,374.867 163.5,373C 168.392,372.88 168.725,371.546 164.5,369C 165.956,368.577 166.456,367.744 166,366.5C 162.643,365.258 162.81,364.424 166.5,364C 165.39,361.866 164.39,359.7 163.5,357.5C 165.03,355.774 166.03,353.774 166.5,351.5C 166.154,350.304 165.654,350.304 165,351.5C 164.667,352.833 164.333,354.167 164,355.5C 164.038,351.668 163.205,348.168 161.5,345C 162.5,344.667 163.5,344.333 164.5,344C 164.105,340.733 163.105,337.733 161.5,335C 165.709,332.905 166.042,330.738 162.5,328.5C 161.94,326.146 161.273,323.813 160.5,321.5C 158.633,324.229 157.633,323.896 157.5,320.5C 156.448,320.649 155.448,320.483 154.5,320C 156.888,319.697 159.055,318.863 161,317.5C 161.333,318.167 161.667,318.833 162,319.5C 162.667,317.167 162.667,314.833 162,312.5C 160.887,313.76 160.72,314.927 161.5,316C 160.5,316.5 159.5,317 158.5,317.5C 155.924,316.117 156.258,315.283 159.5,315C 154.029,315.203 153.363,313.869 157.5,311C 154.998,309.568 152.498,309.402 150,310.5C 145.392,308.358 145.559,307.691 150.5,308.5C 151.672,308.081 152.672,307.415 153.5,306.5C 150.5,305.667 147.5,304.833 144.5,304C 146.771,303.546 149.104,302.879 151.5,302C 150.484,301.481 149.818,300.647 149.5,299.5C 150.043,298.136 150.21,296.803 150,295.5C 148.184,294.671 146.351,293.837 144.5,293C 146.167,292.667 147.833,292.333 149.5,292C 145.998,289.989 145.998,288.656 149.5,288C 148.483,286.951 148.316,285.784 149,284.5C 149.893,285.711 150.726,285.711 151.5,284.5C 149.022,281.482 149.689,280.315 153.5,281C 151.83,278.613 150.163,276.279 148.5,274C 149.167,273.667 149.833,273.333 150.5,273C 148.993,272.163 148.493,270.996 149,269.5C 150.049,270.517 151.216,270.684 152.5,270C 151.051,268.883 149.384,268.216 147.5,268C 150.763,267.131 151.096,265.797 148.5,264C 150.167,263.667 151.833,263.333 153.5,263C 151.956,262.71 150.623,262.044 149.5,261C 150.991,258.978 150.658,257.312 148.5,256C 150.587,256.218 152.587,256.051 154.5,255.5C 145.274,254.266 145.274,252.766 154.5,251C 153.167,250.667 151.833,250.333 150.5,250C 150.833,249.667 151.167,249.333 151.5,249C 149.023,246.239 149.356,244.406 152.5,243.5C 151.167,242.5 149.833,241.5 148.5,240.5C 149.376,239.749 150.376,239.249 151.5,239C 150.376,238.751 149.376,238.251 148.5,237.5C 149.491,235.677 150.824,234.177 152.5,233C 151.062,232.781 149.729,232.281 148.5,231.5C 149.981,230.52 151.315,229.353 152.5,228C 151.692,227.692 151.025,227.192 150.5,226.5C 152.194,222.87 152.86,219.203 152.5,215.5C 152.182,214.353 151.516,213.519 150.5,213C 151.5,212 152.5,211 153.5,210C 152.833,209.667 152.167,209.333 151.5,209C 151.875,204.579 153.042,200.413 155,196.5C 155.472,190.326 155.305,184.159 154.5,178C 153.214,170.549 152.381,163.049 152,155.5C 150.493,153.992 148.827,152.659 147,151.5C 146.793,148.577 145.293,146.744 142.5,146C 142.833,145.667 143.167,145.333 143.5,145C 142.74,143.559 142.074,142.059 141.5,140.5C 140.311,139.571 138.978,139.238 137.5,139.5C 136.818,135.053 134.818,131.387 131.5,128.5C 134.562,124.301 133.728,122.301 129,122.5C 127.415,123.376 126.415,124.709 126,126.5C 125.814,124.1 125.314,121.766 124.5,119.5C 121.095,117.659 118.429,115.159 116.5,112C 117.944,110.293 119.277,108.46 120.5,106.5C 121.325,105.614 122.325,105.281 123.5,105.5C 123.177,109.226 123.511,112.893 124.5,116.5C 125.167,116.167 125.833,115.833 126.5,115.5C 127.167,117.5 127.833,119.5 128.5,121.5C 130.69,119.476 133.023,117.643 135.5,116C 134.376,115.751 133.376,115.251 132.5,114.5C 136.102,112.678 136.102,111.678 132.5,111.5C 132.5,110.167 132.5,108.833 132.5,107.5C 130.692,107.509 129.025,107.009 127.5,106C 129.402,104.349 131.402,104.016 133.5,105C 134.337,103.989 134.67,102.822 134.5,101.5C 132.167,101.5 129.833,101.5 127.5,101.5C 127.895,98.4775 126.895,97.4775 124.5,98.5C 123.3,97.4688 121.966,96.6355 120.5,96C 121.416,95.6258 122.25,95.1258 123,94.5C 125.319,96.9361 127.819,97.1028 130.5,95C 128.667,93.8333 126.833,92.6667 125,91.5C 124.551,84.8346 123.051,78.5012 120.5,72.5C 122.329,70.8442 123.663,68.8442 124.5,66.5C 131.413,64.5377 137.746,61.5377 143.5,57.5C 143.291,56.914 142.957,56.414 142.5,56C 144.251,53.5215 146.418,52.6882 149,53.5C 149.08,51.7518 149.913,50.0851 151.5,48.5C 154.344,47.2841 156.844,45.6174 159,43.5C 159.725,44.0585 160.558,44.3918 161.5,44.5C 166.621,44.2419 171.454,43.2419 176,41.5C 176.324,43.5689 177.158,43.9023 178.5,42.5C 185.348,44.5669 192.348,46.0669 199.5,47C 201.286,47.7845 202.786,48.9512 204,50.5C 204.308,49.6919 204.808,49.0253 205.5,48.5C 210.386,51.2178 215.386,53.7178 220.5,56C 222.5,56.6667 224.5,56.6667 226.5,56C 224.122,55.4888 221.788,54.8221 219.5,54C 218.167,53.3333 218.167,52.6667 219.5,52C 217.866,51.5065 216.199,51.3398 214.5,51.5C 214.286,49.8561 214.62,48.3561 215.5,47C 220.174,46.6666 224.84,46.8333 229.5,47.5C 235.78,48.4948 242.114,49.1615 248.5,49.5C 248.47,50.4972 248.97,51.1639 250,51.5C 254.148,49.8318 257.981,50.3318 261.5,53C 260.692,53.3076 260.025,53.8076 259.5,54.5C 264.73,55.9247 264.73,57.0914 259.5,58C 275.27,57.0684 288.27,50.5684 298.5,38.5C 298.706,43.8014 300.039,43.8014 302.5,38.5C 303.772,39.046 305.106,39.3793 306.5,39.5C 316.069,36.5194 325.403,37.1861 334.5,41.5C 338.178,44.8329 342.178,47.8329 346.5,50.5C 347.309,52.0709 347.643,53.7376 347.5,55.5C 348.833,55.5 350.167,55.5 351.5,55.5C 351.5,56.8333 351.5,58.1667 351.5,59.5C 353.5,59.5 355.5,59.5 357.5,59.5C 357.238,60.9778 357.571,62.3112 358.5,63.5C 361.376,61.063 364.71,59.7297 368.5,59.5C 374.284,60.1327 379.618,62.1327 384.5,65.5C 385.086,65.2907 385.586,64.9574 386,64.5C 387.232,67.3004 387.899,70.3004 388,73.5C 388.943,70.176 389.776,66.8426 390.5,63.5C 392.833,63.5 395.167,63.5 397.5,63.5C 399.027,69.5639 400.86,75.5639 403,81.5C 406.075,83.7832 406.908,86.6166 405.5,90C 406.167,91.6667 406.833,93.3333 407.5,95C 406.293,98.0007 406.293,101.334 407.5,105C 404.522,117.011 402.522,129.178 401.5,141.5C 402.485,143.751 403.818,143.751 405.5,141.5C 405.862,136.473 407.362,131.806 410,127.5C 408.501,135.975 407.668,144.475 407.5,153C 408.2,156.267 409.2,159.434 410.5,162.5C 410.293,155.16 410.96,147.66 412.5,140C 412.167,139.667 411.833,139.333 411.5,139C 412.88,137.676 413.214,136.343 412.5,135C 413.645,130.776 414.978,126.609 416.5,122.5C 419.823,123.938 420.156,125.771 417.5,128C 418.516,128.519 419.182,129.353 419.5,130.5C 420.163,133.806 420.663,137.139 421,140.5C 421.645,139.354 422.478,138.354 423.5,137.5C 420.771,135.633 421.104,134.633 424.5,134.5C 424.461,132.641 425.294,131.308 427,130.5C 429.036,131.102 430.87,132.102 432.5,133.5C 433.994,137.905 435.66,142.239 437.5,146.5C 437.291,147.086 436.957,147.586 436.5,148C 438.209,149.916 439.543,152.082 440.5,154.5C 441.386,153.675 441.719,152.675 441.5,151.5 Z"/></g>
<g><path style="opacity:1" fill="#cdcdcd" d="M 327.5,14.5 C 334.75,17.4636 341.75,20.7969 348.5,24.5C 347.265,26.017 347.265,27.6837 348.5,29.5C 350.705,31.206 353.038,32.706 355.5,34C 356.833,34.6667 356.833,35.3333 355.5,36C 362.446,38.8061 369.112,42.1394 375.5,46C 377.035,46.4962 378.535,46.3295 380,45.5C 384.956,47.0955 389.79,48.7622 394.5,50.5C 393.737,52.3684 392.737,54.0351 391.5,55.5C 390.082,53.6921 388.082,53.0254 385.5,53.5C 385.719,52.325 385.386,51.325 384.5,50.5C 382.232,51.5443 379.899,51.711 377.5,51C 376.051,49.883 374.384,49.2163 372.5,49C 371.953,48.0754 371.287,47.2421 370.5,46.5C 369.264,47.2458 367.93,47.5792 366.5,47.5C 366.719,46.325 366.386,45.325 365.5,44.5C 362.877,43.8078 360.877,42.3078 359.5,40C 355.947,38.0565 352.281,36.3898 348.5,35C 344.946,28.3141 339.279,24.4808 331.5,23.5C 331.617,21.5165 330.95,19.8498 329.5,18.5C 327.094,16.9028 324.761,16.2361 322.5,16.5C 323.668,14.7826 325.335,14.1159 327.5,14.5 Z"/></g>
<g><path style="opacity:0.927" fill="#b0b0b0" d="M 105.5,44.5 C 105.954,47.1988 105.287,49.8655 103.5,52.5C 101.011,55.8051 98.3447,56.1384 95.5,53.5C 95.5,52.5 95.5,51.5 95.5,50.5C 97.8612,46.9819 101.195,44.9819 105.5,44.5 Z"/></g>
<g><path style="opacity:0.985" fill="#dedede" d="M 99.5,68.5 C 97.3186,70.1708 94.9853,71.6708 92.5,73C 95.1973,75.8099 94.6973,76.6433 91,75.5C 90.6905,76.7659 90.1905,77.9326 89.5,79C 89.8333,79.3333 90.1667,79.6667 90.5,80C 87.2697,81.724 86.9364,83.724 89.5,86C 88.062,86.2189 86.7287,86.7189 85.5,87.5C 85.153,90.494 84.4864,93.6606 83.5,97C 83.6667,98.1667 83.8333,99.3333 84,100.5C 87.8775,105.368 90.8775,110.702 93,116.5C 94.2759,119.366 94.4426,122.2 93.5,125C 94.4162,125.374 95.2496,125.874 96,126.5C 99.5917,135.457 102.092,144.79 103.5,154.5C 105.099,154.232 106.432,154.566 107.5,155.5C 106.761,155.369 106.094,155.536 105.5,156C 107.349,157.093 109.016,158.426 110.5,160C 108.98,161.885 107.98,164.051 107.5,166.5C 109.762,168.508 109.262,168.841 106,167.5C 104.391,163.29 102.558,159.29 100.5,155.5C 98.791,151.881 96.6244,148.547 94,145.5C 93.847,148.9 94.347,152.233 95.5,155.5C 93.0794,150.145 90.7461,144.645 88.5,139C 88.6667,138.167 88.8333,137.333 89,136.5C 90.3333,137.833 91.6667,139.167 93,140.5C 93.4497,138.481 94.283,136.648 95.5,135C 94.376,134.751 93.376,134.251 92.5,133.5C 91.8721,131.742 90.8721,130.242 89.5,129C 89.9574,128.586 90.2907,128.086 90.5,127.5C 89.5321,124.727 88.1988,122.227 86.5,120C 87.3673,117.684 86.7007,115.684 84.5,114C 84.8333,113.667 85.1667,113.333 85.5,113C 84.3096,110.267 82.4763,108.101 80,106.5C 78.5,107.333 77.3333,108.5 76.5,110C 76.5575,115 77.5575,120 79.5,125C 79.1667,125.333 78.8333,125.667 78.5,126C 83.6149,135.353 87.6149,144.853 90.5,154.5C 89.9236,157.124 88.5902,157.791 86.5,156.5C 84.4608,152.81 82.4608,149.143 80.5,145.5C 77.4377,145.156 74.4377,144.489 71.5,143.5C 70.2013,141.858 68.7013,140.524 67,139.5C 66.228,139.645 65.5613,139.978 65,140.5C 63.1548,147.109 61.4882,153.776 60,160.5C 59.5012,164.486 59.3345,168.486 59.5,172.5C 58.1667,172.5 56.8333,172.5 55.5,172.5C 54.8619,175.763 54.8619,178.929 55.5,182C 54.9152,183.302 54.2485,184.469 53.5,185.5C 50.6472,184.811 48.9806,182.978 48.5,180C 57.4858,143.876 69.1525,108.71 83.5,74.5C 83.3691,75.3764 83.7025,76.0431 84.5,76.5C 85.3857,75.675 85.719,74.675 85.5,73.5C 87.3904,73.7035 88.8904,73.0368 90,71.5C 90.6064,68.4522 92.1064,65.9522 94.5,64C 97.3002,64.0004 98.9669,65.5004 99.5,68.5 Z"/></g>
<g><path style="opacity:1" fill="#f0f0f0" d="M 159.5,87.5 C 176.977,87.7351 194.644,88.0684 212.5,88.5C 212.919,89.6721 213.585,90.6721 214.5,91.5C 217.3,90.2681 220.3,89.6015 223.5,89.5C 255.488,91.1028 287.488,92.1028 319.5,92.5C 319.679,94.6056 320.679,96.2723 322.5,97.5C 326.786,99.0402 331.119,100.374 335.5,101.5C 336.077,107.798 335.077,113.798 332.5,119.5C 331.833,118.167 331.167,116.833 330.5,115.5C 328.65,118.972 327.317,122.639 326.5,126.5C 324.929,127.309 323.262,127.643 321.5,127.5C 320.841,132.814 320.174,138.147 319.5,143.5C 320.006,148.217 320.672,152.883 321.5,157.5C 322.833,157.5 324.167,157.5 325.5,157.5C 325.5,163.5 325.5,169.5 325.5,175.5C 324.167,175.5 322.833,175.5 321.5,175.5C 322.239,196.895 323.906,218.229 326.5,239.5C 328.641,242.327 328.641,244.993 326.5,247.5C 324.837,263.459 323.837,279.459 323.5,295.5C 323.53,303.997 324.197,312.33 325.5,320.5C 317.5,321.833 317.5,323.167 325.5,324.5C 317.602,326.114 317.602,327.114 325.5,327.5C 325.5,330.167 325.5,332.833 325.5,335.5C 321.5,335.5 317.5,335.5 313.5,335.5C 313.5,330.167 313.5,324.833 313.5,319.5C 311.5,319.5 309.5,319.5 307.5,319.5C 307.459,324.671 308.626,329.338 311,333.5C 310.5,334 310,334.5 309.5,335C 306.183,335.498 302.85,335.665 299.5,335.5C 299.5,332.833 299.5,330.167 299.5,327.5C 298.167,327.5 296.833,327.5 295.5,327.5C 295.5,322.167 295.5,316.833 295.5,311.5C 290.125,311.828 284.792,311.495 279.5,310.5C 276.833,309.167 276.833,307.833 279.5,306.5C 278.5,305.5 277.5,304.5 276.5,303.5C 274.833,305.167 273.167,306.833 271.5,308.5C 272.5,309.5 273.5,310.5 274.5,311.5C 275.498,320.141 275.831,328.808 275.5,337.5C 276.833,337.5 278.167,337.5 279.5,337.5C 279.5,345.5 279.5,353.5 279.5,361.5C 282.167,361.5 284.833,361.5 287.5,361.5C 287.5,364.167 287.5,366.833 287.5,369.5C 292.833,370.167 298.167,370.833 303.5,371.5C 303.5,372.833 303.5,374.167 303.5,375.5C 306.167,375.5 308.833,375.5 311.5,375.5C 311.5,378.833 311.5,382.167 311.5,385.5C 308.833,385.5 306.167,385.5 303.5,385.5C 303.5,386.833 303.5,388.167 303.5,389.5C 308.833,390.167 314.167,390.833 319.5,391.5C 319.5,396.833 319.5,402.167 319.5,407.5C 308.833,408.167 308.833,408.833 319.5,409.5C 319.5,410.833 319.5,412.167 319.5,413.5C 308.833,414.167 308.833,414.833 319.5,415.5C 319.656,419.582 319.156,423.582 318,427.5C 314.94,426.398 314.107,427.398 315.5,430.5C 312.914,431.48 310.247,431.813 307.5,431.5C 307.5,434.167 307.5,436.833 307.5,439.5C 308.833,439.5 310.167,439.5 311.5,439.5C 311.5,440.833 311.5,442.167 311.5,443.5C 306.203,444.032 306.203,444.866 311.5,446C 308.876,446.576 308.209,447.91 309.5,450C 308.062,450.219 306.729,450.719 305.5,451.5C 307.576,452.1 309.576,452.433 311.5,452.5C 308.749,453.5 306.082,454.667 303.5,456C 306.381,457.227 309.047,458.727 311.5,460.5C 310.667,460.833 309.833,461.167 309,461.5C 308,460.833 307,460.167 306,459.5C 304.674,459.755 303.674,460.422 303,461.5C 300.936,460.409 298.769,460.242 296.5,461C 299.754,462.027 302.754,463.527 305.5,465.5C 303.922,466.298 302.256,466.798 300.5,467C 301.448,467.483 302.448,467.649 303.5,467.5C 304.091,471.586 304.257,475.586 304,479.5C 305.011,478.663 306.178,478.33 307.5,478.5C 307.5,479.5 307.5,480.5 307.5,481.5C 305.396,481.201 303.396,481.534 301.5,482.5C 302.326,483.451 302.492,484.451 302,485.5C 300.482,485.943 299.315,485.276 298.5,483.5C 297.481,484.687 296.314,485.687 295,486.5C 293.406,485.427 291.906,484.427 290.5,483.5C 286.491,485.078 282.324,486.078 278,486.5C 273.468,486.23 268.968,486.23 264.5,486.5C 261.63,485.878 258.796,485.211 256,484.5C 254.684,487.028 253.517,487.028 252.5,484.5C 249.903,484.853 247.07,485.519 244,486.5C 241.833,487.081 239.833,486.414 238,484.5C 235.28,485.311 232.78,485.311 230.5,484.5C 229.833,485.167 229.167,485.833 228.5,486.5C 225.851,485.028 223.018,484.028 220,483.5C 219.692,484.308 219.192,484.975 218.5,485.5C 217.452,484.617 216.285,483.95 215,483.5C 203.693,483.807 192.526,483.807 181.5,483.5C 181.45,481.41 182.45,480.077 184.5,479.5C 185.736,480.246 187.07,480.579 188.5,480.5C 188.596,484.311 189.262,484.311 190.5,480.5C 190.911,481.262 191.077,482.262 191,483.5C 193.369,482.449 195.869,481.782 198.5,481.5C 199.994,481.709 201.161,482.376 202,483.5C 203.401,481.808 205.234,481.141 207.5,481.5C 207.5,478.833 207.5,476.167 207.5,473.5C 199.621,471.927 191.621,470.594 183.5,469.5C 183.5,468.167 183.5,466.833 183.5,465.5C 186.247,465.813 188.914,465.48 191.5,464.5C 190.311,463.571 188.978,463.238 187.5,463.5C 187.5,458.167 187.5,452.833 187.5,447.5C 182.549,448.399 181.549,447.065 184.5,443.5C 186.833,442.833 189.167,442.167 191.5,441.5C 190.286,439.931 188.619,439.098 186.5,439C 194.167,438.187 193.834,437.521 185.5,437C 189.521,437.048 193.187,436.048 196.5,434C 192.719,432.412 192.219,430.579 195,428.5C 195.483,427.552 195.649,426.552 195.5,425.5C 191.689,425.404 191.689,424.738 195.5,423.5C 194.276,420.869 193.609,418.035 193.5,415C 193.833,412.5 194.167,410 194.5,407.5C 195.167,410.167 195.833,412.833 196.5,415.5C 197.711,414.726 197.711,413.893 196.5,413C 197.624,412.751 198.624,412.251 199.5,411.5C 197.995,410.158 197.328,408.492 197.5,406.5C 203.989,405.516 203.989,404.682 197.5,404C 200.5,403.667 203.5,403.333 206.5,403C 204.167,402.667 201.833,402.333 199.5,402C 198.631,399.421 196.965,397.588 194.5,396.5C 193.708,394.535 193.041,392.535 192.5,390.5C 193.325,389.614 194.325,389.281 195.5,389.5C 195.831,382.137 195.497,374.803 194.5,367.5C 192.748,359.1 191.081,350.767 189.5,342.5C 192.167,341.167 192.167,339.833 189.5,338.5C 190.167,337.833 190.833,337.167 191.5,336.5C 190.047,333.702 189.047,330.702 188.5,327.5C 187.833,322.167 187.167,316.833 186.5,311.5C 185.833,314.833 185.167,318.167 184.5,321.5C 183.502,312.859 183.169,304.192 183.5,295.5C 182.167,295.5 180.833,295.5 179.5,295.5C 179.5,292.833 179.5,290.167 179.5,287.5C 173.034,287.29 173.034,286.623 179.5,285.5C 179.808,272.782 179.141,260.115 177.5,247.5C 178.77,241.893 178.27,236.56 176,231.5C 175.178,234.117 174.678,236.784 174.5,239.5C 172.167,239.5 169.833,239.5 167.5,239.5C 167.662,241.527 167.495,243.527 167,245.5C 165.858,243.321 165.025,240.988 164.5,238.5C 165.242,237.713 166.075,237.047 167,236.5C 166.95,230.946 167.783,225.612 169.5,220.5C 166.972,219.184 166.972,218.017 169.5,217C 168.5,216.167 167.5,215.333 166.5,214.5C 168.45,213.269 169.283,211.602 169,209.5C 168.333,210.167 167.667,210.833 167,211.5C 161.853,206.953 160.019,201.286 161.5,194.5C 162.729,193.719 164.062,193.219 165.5,193C 164.234,192.691 163.067,192.191 162,191.5C 161.212,179.448 161.712,167.448 163.5,155.5C 162.726,151.951 161.393,148.618 159.5,145.5C 160.473,143.608 161.14,141.608 161.5,139.5C 160.189,135.593 159.522,131.593 159.5,127.5C 158.167,127.5 156.833,127.5 155.5,127.5C 155.708,125.08 155.374,122.747 154.5,120.5C 155.242,119.713 156.075,119.047 157,118.5C 157.303,108.104 158.136,97.7702 159.5,87.5 Z"/></g>
<g><path style="opacity:0.998" fill="#e9e9e9" d="M 95.5,155.5 C 99.0369,160.575 101.537,166.241 103,172.5C 103.645,182.953 105.145,192.953 107.5,202.5C 88.6334,199.209 70.6334,193.543 53.5,185.5C 54.2485,184.469 54.9152,183.302 55.5,182C 54.8619,178.929 54.8619,175.763 55.5,172.5C 56.8333,172.5 58.1667,172.5 59.5,172.5C 59.3345,168.486 59.5012,164.486 60,160.5C 61.4882,153.776 63.1548,147.109 65,140.5C 65.5613,139.978 66.228,139.645 67,139.5C 68.7013,140.524 70.2013,141.858 71.5,143.5C 74.4377,144.489 77.4377,145.156 80.5,145.5C 82.4608,149.143 84.4608,152.81 86.5,156.5C 88.5902,157.791 89.9236,157.124 90.5,154.5C 87.6149,144.853 83.6149,135.353 78.5,126C 78.8333,125.667 79.1667,125.333 79.5,125C 77.5575,120 76.5575,115 76.5,110C 77.3333,108.5 78.5,107.333 80,106.5C 82.4763,108.101 84.3096,110.267 85.5,113C 85.1667,113.333 84.8333,113.667 84.5,114C 86.7007,115.684 87.3673,117.684 86.5,120C 88.1988,122.227 89.5321,124.727 90.5,127.5C 90.2907,128.086 89.9574,128.586 89.5,129C 90.8721,130.242 91.8721,131.742 92.5,133.5C 93.376,134.251 94.376,134.751 95.5,135C 94.283,136.648 93.4497,138.481 93,140.5C 91.6667,139.167 90.3333,137.833 89,136.5C 88.8333,137.333 88.6667,138.167 88.5,139C 90.7461,144.645 93.0794,150.145 95.5,155.5 Z"/></g>
<g><path style="opacity:0.999" fill="#dcdcdc" d="M 136.5,304.5 C 134.94,302.871 135.273,301.704 137.5,301C 136.167,300.667 134.833,300.333 133.5,300C 135.061,299.059 136.395,297.892 137.5,296.5C 134.351,291.617 134.018,286.617 136.5,281.5C 137.167,282.5 137.833,283.5 138.5,284.5C 139.252,281.737 140.252,279.07 141.5,276.5C 140.358,274.883 139.691,273.05 139.5,271C 139.901,267.833 140.234,264.666 140.5,261.5C 136.743,261.714 136.076,260.714 138.5,258.5C 137.833,257.833 137.167,257.167 136.5,256.5C 139.167,254.5 139.167,252.5 136.5,250.5C 137.309,248.929 137.643,247.262 137.5,245.5C 144.049,245.093 144.049,244.093 137.5,242.5C 139.167,241.833 140.833,241.167 142.5,240.5C 141.675,239.614 140.675,239.281 139.5,239.5C 139.978,229.556 140.644,219.722 141.5,210C 140.285,206.139 138.952,202.306 137.5,198.5C 138.689,197.571 140.022,197.238 141.5,197.5C 141.5,196.167 141.5,194.833 141.5,193.5C 139.194,193.007 136.861,192.674 134.5,192.5C 134.579,193.93 134.246,195.264 133.5,196.5C 134.025,197.192 134.692,197.692 135.5,198C 133.387,199.704 131.887,201.537 131,203.5C 130.508,202.451 130.674,201.451 131.5,200.5C 130.5,199.5 129.5,198.5 128.5,197.5C 127.914,197.709 127.414,198.043 127,198.5C 126.46,196.865 126.96,195.532 128.5,194.5C 128.167,193.5 127.5,192.833 126.5,192.5C 125.508,196.783 125.174,201.116 125.5,205.5C 125.005,196.773 124.005,188.106 122.5,179.5C 124.241,175.342 123.574,171.676 120.5,168.5C 121.11,167.609 121.443,166.609 121.5,165.5C 121.5,164.833 121.5,164.167 121.5,163.5C 122.234,164.878 122.901,166.378 123.5,168C 124.744,168.456 125.577,167.956 126,166.5C 125.993,162.98 125.826,159.646 125.5,156.5C 126.937,154.423 127.604,152.09 127.5,149.5C 134.074,149.425 138.407,152.425 140.5,158.5C 141.822,158.33 142.989,158.663 144,159.5C 144.029,162.367 144.862,164.867 146.5,167C 145.594,168.699 145.261,170.533 145.5,172.5C 146.552,172.351 147.552,172.517 148.5,173C 149.692,178.385 149.692,183.718 148.5,189C 148.905,189.945 149.572,190.612 150.5,191C 148.043,192.512 148.043,193.846 150.5,195C 147.456,195.359 147.122,196.026 149.5,197C 148.763,199.225 148.763,201.559 149.5,204C 149.333,205.167 149.167,206.333 149,207.5C 148.08,207.93 147.247,208.264 146.5,208.5C 147.489,209.468 148.156,210.635 148.5,212C 147.657,224.839 146.657,237.673 145.5,250.5C 146.613,254.189 145.946,257.689 143.5,261C 145.037,264.356 144.703,267.523 142.5,270.5C 143.166,271.831 143.166,273.331 142.5,275C 142.755,276.326 143.422,277.326 144.5,278C 143.376,278.249 142.376,278.749 141.5,279.5C 144.221,281.845 143.888,283.678 140.5,285C 140.096,289.071 140.096,292.904 140.5,296.5C 139.91,297.799 138.91,298.632 137.5,299C 139.571,299.983 141.571,300.65 143.5,301C 141.047,301.959 138.714,303.126 136.5,304.5 Z"/></g>
<g><path style="opacity:1" fill="#b3b3b3" d="M 118.5,153.5 C 120.41,156.452 121.41,159.786 121.5,163.5C 121.5,164.167 121.5,164.833 121.5,165.5C 116.318,161.47 113.818,156.137 114,149.5C 115.307,151.192 116.807,152.525 118.5,153.5 Z"/></g>
<g><path style="opacity:1" fill="#e0e0e0" d="M 398.5,200.5 C 395.993,201.892 393.327,202.892 390.5,203.5C 391.388,200.946 391.721,198.279 391.5,195.5C 390.448,195.649 389.448,195.483 388.5,195C 388.833,194.667 389.167,194.333 389.5,194C 387.947,192.903 386.614,191.57 385.5,190C 386.167,189.667 386.833,189.333 387.5,189C 386.267,187.302 385.6,185.302 385.5,183C 385.536,180.906 385.869,178.906 386.5,177C 385.953,176.075 385.287,175.242 384.5,174.5C 381.09,177.586 379.09,176.92 378.5,172.5C 380.755,167.482 382.088,162.149 382.5,156.5C 383.822,156.67 384.989,156.337 386,155.5C 386.333,156.833 386.667,158.167 387,159.5C 387.333,156.167 387.667,152.833 388,149.5C 390.909,145.505 393.076,141.171 394.5,136.5C 395.833,136.5 397.167,136.5 398.5,136.5C 397.752,138.584 397.752,140.584 398.5,142.5C 397.234,143.724 396.067,145.057 395,146.5C 395.546,151.957 394.379,157.123 391.5,162C 392.051,163.398 392.384,164.732 392.5,166C 390.903,168.966 389.57,172.133 388.5,175.5C 390.261,178.441 392.928,180.108 396.5,180.5C 393.261,182.825 390.594,185.659 388.5,189C 390.54,192.355 393.54,194.189 397.5,194.5C 397.833,196.5 398.167,198.5 398.5,200.5 Z"/></g>
<g><path style="opacity:1" fill="#666666" d="M 379.5,165.5 C 378.024,166.733 376.357,167.733 374.5,168.5C 373.287,168.253 372.62,167.586 372.5,166.5C 372.833,165.167 373.167,163.833 373.5,162.5C 375.143,160.027 377.31,158.027 380,156.5C 380.301,159.507 380.135,162.507 379.5,165.5 Z"/></g>
<g><path style="opacity:0.995" fill="#e4e4e4" d="M 368.5,200.5 C 367.229,251.499 367.229,302.499 368.5,353.5C 367.833,343.659 367.167,333.659 366.5,323.5C 365.914,323.291 365.414,322.957 365,322.5C 363.818,318.476 363.652,314.476 364.5,310.5C 363.877,307.833 362.877,305.333 361.5,303C 362.022,302.439 362.355,301.772 362.5,301C 361.086,296.273 360.252,291.44 360,286.5C 356.643,285.258 356.81,284.424 360.5,284C 358.862,281.442 357.696,278.609 357,275.5C 356.369,267.388 355.203,259.388 353.5,251.5C 352.178,251.67 351.011,251.337 350,250.5C 349.833,250.833 349.667,251.167 349.5,251.5C 350.376,252.251 351.376,252.751 352.5,253C 351.234,253.309 350.067,253.809 349,254.5C 348.667,254.167 348.333,253.833 348,253.5C 346.902,259.064 347.735,264.231 350.5,269C 349.33,270.755 347.663,271.755 345.5,272C 348.544,272.359 348.878,273.026 346.5,274C 346.981,277.018 347.981,279.852 349.5,282.5C 347.993,284.969 348.327,287.135 350.5,289C 349.296,290.353 348.629,292.019 348.5,294C 347.722,298.055 349.389,300.222 353.5,300.5C 352.312,300.307 350.978,300.807 349.5,302C 351.891,302.691 351.891,303.691 349.5,305C 352.028,306.017 352.028,307.184 349.5,308.5C 350.025,309.192 350.692,309.692 351.5,310C 351.964,314.232 351.964,318.565 351.5,323C 353.34,330.032 354.673,337.199 355.5,344.5C 355.176,346.569 354.342,346.902 353,345.5C 353.072,350.179 353.572,354.846 354.5,359.5C 351.203,359.329 350.869,359.995 353.5,361.5C 352.271,362.281 350.938,362.781 349.5,363C 351.816,365.152 352.15,367.652 350.5,370.5C 351.953,372.467 352.953,374.633 353.5,377C 353.767,382.089 353.434,387.089 352.5,392C 352.844,393.365 353.511,394.532 354.5,395.5C 354.154,396.696 353.654,396.696 353,395.5C 352.056,396.263 351.556,397.263 351.5,398.5C 353.349,403.318 353.682,407.985 352.5,412.5C 353.167,413.5 353.833,414.5 354.5,415.5C 353.833,415.833 353.167,416.167 352.5,416.5C 352.333,422.334 352.333,428.167 352.5,434C 352.695,436.352 352.028,438.352 350.5,440C 351.448,440.483 352.448,440.649 353.5,440.5C 353.415,442.929 352.415,444.929 350.5,446.5C 351.662,451.891 351.328,457.225 349.5,462.5C 350.09,463.799 351.09,464.632 352.5,465C 350.835,466.658 349.168,468.325 347.5,470C 347.944,471.762 348.444,471.595 349,469.5C 352.309,471.724 351.809,473.057 347.5,473.5C 348.689,474.429 350.022,474.762 351.5,474.5C 350.925,479.325 348.758,480.658 345,478.5C 344.383,479.449 344.549,480.282 345.5,481C 344.062,481.219 342.729,481.719 341.5,482.5C 342.698,482.94 343.865,483.273 345,483.5C 345.667,482.833 346.333,482.167 347,481.5C 346.503,483.198 346.67,484.865 347.5,486.5C 346.975,487.192 346.308,487.692 345.5,488C 347.155,489.444 347.822,491.278 347.5,493.5C 345.039,494.531 342.373,495.198 339.5,495.5C 338.64,493.386 336.973,492.22 334.5,492C 334.833,491.667 335.167,491.333 335.5,491C 334.234,490.691 333.067,490.191 332,489.5C 331.666,487.153 331.833,484.819 332.5,482.5C 336.049,482.121 339.049,480.621 341.5,478C 339.668,477.252 338.001,476.252 336.5,475C 337.448,474.517 338.448,474.351 339.5,474.5C 339.5,473.167 339.5,471.833 339.5,470.5C 338.448,470.649 337.448,470.483 336.5,470C 338.246,469.529 339.913,468.862 341.5,468C 339.915,467.915 338.582,467.749 337.5,467.5C 338.025,466.808 338.692,466.308 339.5,466C 338.333,465.5 337.5,464.667 337,463.5C 336.259,460.438 336.425,457.438 337.5,454.5C 335.941,452.869 333.941,452.036 331.5,452C 335.074,451.531 338.408,450.364 341.5,448.5C 340.509,447.335 339.509,446.168 338.5,445C 339.68,442.185 339.347,439.518 337.5,437C 339.072,434.962 340.072,432.629 340.5,430C 339.833,429.667 339.167,429.333 338.5,429C 339.167,427.667 339.833,426.333 340.5,425C 338.893,423.951 338.227,422.451 338.5,420.5C 339.822,420.67 340.989,420.337 342,419.5C 343.819,411.971 342.986,404.804 339.5,398C 340.938,397.781 342.271,397.281 343.5,396.5C 342.147,395.476 341.48,394.143 341.5,392.5C 342.552,392.649 343.552,392.483 344.5,392C 341.946,391.228 340.279,389.562 339.5,387C 342.643,384.338 342.643,381.338 339.5,378C 341.835,373.767 342.168,369.267 340.5,364.5C 343.433,362.262 343.099,361.262 339.5,361.5C 339.917,358.921 339.25,356.754 337.5,355C 338.793,354.51 340.127,354.343 341.5,354.5C 341.722,351.61 341.055,348.943 339.5,346.5C 343.103,344.503 343.436,342.003 340.5,339C 341.361,336.584 341.695,334.25 341.5,332C 340.624,330.415 339.291,329.415 337.5,329C 339.044,328.71 340.377,328.044 341.5,327C 340.534,323.765 339.201,320.765 337.5,318C 338.167,317.667 338.833,317.333 339.5,317C 338.988,312.386 338.488,307.553 338,302.5C 337.25,301.874 336.416,301.374 335.5,301C 336.804,300.196 337.471,299.029 337.5,297.5C 337.219,294.448 337.219,291.448 337.5,288.5C 336.401,285.31 335.068,282.31 333.5,279.5C 334.833,279.5 336.167,279.5 337.5,279.5C 338.731,257.764 339.731,235.764 340.5,213.5C 341.833,208.167 343.167,208.167 344.5,213.5C 345.48,210.914 345.813,208.247 345.5,205.5C 346.833,205.5 348.167,205.5 349.5,205.5C 349.5,204.167 349.5,202.833 349.5,201.5C 348.167,201.5 346.833,201.5 345.5,201.5C 345.5,199.5 345.5,197.5 345.5,195.5C 348.248,194.968 350.248,193.968 351.5,192.5C 351.997,188.241 351.331,184.241 349.5,180.5C 350.5,179.667 351.5,178.833 352.5,178C 351.253,176.506 351.253,175.006 352.5,173.5C 353.167,174.167 353.833,174.833 354.5,175.5C 357.474,173.994 357.807,172.328 355.5,170.5C 357.412,168.343 359.079,166.009 360.5,163.5C 362.556,165.019 364.89,165.853 367.5,166C 366.5,166.833 365.5,167.667 364.5,168.5C 365.144,178.803 365.811,189.136 366.5,199.5C 367.183,199.863 367.85,200.196 368.5,200.5 Z"/></g>
<g><path style="opacity:0.993" fill="#818181" d="M 114.5,163.5 C 116.5,165.167 118.5,166.833 120.5,168.5C 123.574,171.676 124.241,175.342 122.5,179.5C 120.732,186.168 118.899,192.835 117,199.5C 116.252,201.751 114.752,203.084 112.5,203.5C 110.585,199.412 111.585,196.246 115.5,194C 113.95,188.327 113.284,182.493 113.5,176.5C 113.501,171.987 113.834,167.653 114.5,163.5 Z"/></g>
<g><path style="opacity:1" fill="#7f7f7f" d="M 379.5,165.5 C 378.502,168.974 376.668,171.974 374,174.5C 373.056,178.609 372.222,182.609 371.5,186.5C 371.5,185.833 371.5,185.167 371.5,184.5C 371.039,182.45 370.372,180.45 369.5,178.5C 370.511,174.377 371.511,170.377 372.5,166.5C 372.62,167.586 373.287,168.253 374.5,168.5C 376.357,167.733 378.024,166.733 379.5,165.5 Z"/></g>
<g><path style="opacity:1" fill="#cfcfcf" d="M 118.5,153.5 C 116.807,152.525 115.307,151.192 114,149.5C 113.818,156.137 116.318,161.47 121.5,165.5C 121.443,166.609 121.11,167.609 120.5,168.5C 118.5,166.833 116.5,165.167 114.5,163.5C 113.791,162.596 112.791,162.263 111.5,162.5C 112.332,169.486 112.499,176.486 112,183.5C 111.804,185.286 110.971,186.619 109.5,187.5C 108.399,181.492 107.232,175.492 106,169.5C 103.334,165.167 101.501,160.5 100.5,155.5C 102.558,159.29 104.391,163.29 106,167.5C 109.262,168.841 109.762,168.508 107.5,166.5C 107.98,164.051 108.98,161.885 110.5,160C 109.016,158.426 107.349,157.093 105.5,156C 106.094,155.536 106.761,155.369 107.5,155.5C 109.505,157.334 111.672,159.001 114,160.5C 114.167,160.167 114.333,159.833 114.5,159.5C 110.539,155.358 108.539,150.358 108.5,144.5C 108.31,139.879 109.81,139.212 113,142.5C 114.563,146.393 116.397,150.06 118.5,153.5 Z"/></g>
<g><path style="opacity:1" fill="#d5d5d5" d="M 378.5,172.5 C 379.09,176.92 381.09,177.586 384.5,174.5C 385.287,175.242 385.953,176.075 386.5,177C 385.869,178.906 385.536,180.906 385.5,183C 385.6,185.302 386.267,187.302 387.5,189C 386.833,189.333 386.167,189.667 385.5,190C 386.614,191.57 387.947,192.903 389.5,194C 389.167,194.333 388.833,194.667 388.5,195C 389.448,195.483 390.448,195.649 391.5,195.5C 391.721,198.279 391.388,200.946 390.5,203.5C 388.972,204.309 387.306,204.976 385.5,205.5C 385.703,203.362 386.703,201.695 388.5,200.5C 387.5,199.167 386.5,197.833 385.5,196.5C 385.709,195.914 386.043,195.414 386.5,195C 384.19,194.503 381.857,194.337 379.5,194.5C 379.587,191.402 379.087,191.068 378,193.5C 375.128,191 373.961,187.833 374.5,184C 374.313,179.56 375.647,175.726 378.5,172.5 Z"/></g>
<g><path style="opacity:1" fill="#bbbbbb" d="M 100.5,155.5 C 101.501,160.5 103.334,165.167 106,169.5C 107.232,175.492 108.399,181.492 109.5,187.5C 110.971,186.619 111.804,185.286 112,183.5C 112.499,176.486 112.332,169.486 111.5,162.5C 112.791,162.263 113.791,162.596 114.5,163.5C 113.834,167.653 113.501,171.987 113.5,176.5C 113.284,182.493 113.95,188.327 115.5,194C 111.585,196.246 110.585,199.412 112.5,203.5C 110.708,203.634 109.042,203.301 107.5,202.5C 105.145,192.953 103.645,182.953 103,172.5C 101.537,166.241 99.0369,160.575 95.5,155.5C 94.347,152.233 93.847,148.9 94,145.5C 96.6244,148.547 98.791,151.881 100.5,155.5 Z"/></g>
<g><path style="opacity:0.992" fill="#d8d8d8" d="M 136.5,304.5 C 137.609,305.29 138.942,305.79 140.5,306C 135.373,307.526 135.373,308.526 140.5,309C 139.315,310.353 137.981,311.52 136.5,312.5C 138.078,313.298 139.744,313.798 141.5,314C 139.998,314.583 138.665,315.416 137.5,316.5C 139.047,316.207 140.714,316.707 142.5,318C 139.467,319.045 136.8,320.712 134.5,323C 136.833,324 139.167,325 141.5,326C 138.957,326.14 136.623,326.806 134.5,328C 138.167,329 141.833,330 145.5,331C 142.044,331.18 138.711,331.847 135.5,333C 136.328,333.915 137.328,334.581 138.5,335C 137.5,335.833 136.5,336.667 135.5,337.5C 136.76,338.382 137.926,339.382 139,340.5C 140.713,340.62 142.546,340.453 144.5,340C 142.715,341.163 140.715,341.83 138.5,342C 140.053,344.362 142.22,345.862 145,346.5C 146.488,344.18 148.321,344.013 150.5,346C 148.131,347.962 146.798,350.128 146.5,352.5C 149.53,355.108 150.197,358.274 148.5,362C 149.535,363.274 150.702,364.44 152,365.5C 153.243,364.664 154.41,364.997 155.5,366.5C 153.517,368.024 151.184,369.024 148.5,369.5C 151.226,371.365 154.226,372.365 157.5,372.5C 156.614,374.722 156.614,376.888 157.5,379C 155.37,381.726 155.703,384.392 158.5,387C 157.5,387.833 156.5,388.667 155.5,389.5C 156.025,390.192 156.692,390.692 157.5,391C 156.167,392 156.167,393 157.5,394C 156.328,394.419 155.328,395.085 154.5,396C 156.101,396.273 157.601,396.773 159,397.5C 161.173,394.723 161.673,394.89 160.5,398C 158.833,398.333 157.167,398.667 155.5,399C 156.448,399.483 157.448,399.649 158.5,399.5C 158.5,400.5 158.5,401.5 158.5,402.5C 157.127,402.343 155.793,402.51 154.5,403C 161.503,403.497 161.837,404.163 155.5,405C 156.167,405.333 156.833,405.667 157.5,406C 154.184,407.251 153.85,408.918 156.5,411C 155.833,411.333 155.167,411.667 154.5,412C 155.833,412.667 155.833,413.333 154.5,414C 155.833,414.333 157.167,414.667 158.5,415C 155.897,416.936 154.064,419.436 153,422.5C 151.951,421.483 150.784,421.316 149.5,422C 152.167,422.667 152.167,423.333 149.5,424C 150.938,424.219 152.271,424.719 153.5,425.5C 151.993,427.969 152.327,430.135 154.5,432C 150.815,432.914 151.148,433.581 155.5,434C 154.034,434.635 152.7,435.469 151.5,436.5C 150.914,436.291 150.414,435.957 150,435.5C 149.55,438.064 150.716,439.564 153.5,440C 150.536,440.84 150.203,441.84 152.5,443C 150.136,444.012 148.802,445.345 148.5,447C 150.359,448.692 152.359,450.192 154.5,451.5C 153.271,452.281 151.938,452.781 150.5,453C 151.672,453.419 152.672,454.085 153.5,455C 150.456,455.359 150.122,456.026 152.5,457C 151.167,458 151.167,459 152.5,460C 151.5,460.333 150.5,460.667 149.5,461C 156.167,461.667 156.167,462.333 149.5,463C 153.932,463.623 154.265,464.623 150.5,466C 155.621,466.577 155.621,467.577 150.5,469C 151.167,469.333 151.833,469.667 152.5,470C 151.167,470.333 149.833,470.667 148.5,471C 152.449,471.807 152.449,472.307 148.5,472.5C 148.78,475.388 147.447,476.888 144.5,477C 148.723,479.391 152.723,481.391 156.5,483C 155.833,483.667 155.167,484.333 154.5,485C 155.542,487.557 156.875,489.89 158.5,492C 158.043,492.414 157.709,492.914 157.5,493.5C 159.925,494.649 159.925,495.316 157.5,495.5C 148.465,495.092 139.798,493.425 131.5,490.5C 132.738,490.19 132.738,489.69 131.5,489C 133.741,487.478 136.074,486.145 138.5,485C 137.289,484.107 137.289,483.274 138.5,482.5C 139.989,482.467 141.322,481.967 142.5,481C 139.494,478.886 136.16,477.553 132.5,477C 128.244,474.277 128.578,473.11 133.5,473.5C 134.891,469.92 136.558,466.42 138.5,463C 137.167,462.667 135.833,462.333 134.5,462C 136.833,460.757 137.5,459.091 136.5,457C 137.167,456.667 137.833,456.333 138.5,456C 136.299,454.316 135.633,452.316 136.5,450C 132.728,449.389 132.728,448.389 136.5,447C 134.627,445.915 132.96,444.582 131.5,443C 132.328,442.085 133.328,441.419 134.5,441C 132.5,439.333 130.5,437.667 128.5,436C 130.658,435.041 130.991,433.541 129.5,431.5C 128.553,429.6 127.053,428.267 125,427.5C 124.79,425.942 124.29,424.609 123.5,423.5C 125.022,350.842 125.689,278.176 125.5,205.5C 125.174,201.116 125.508,196.783 126.5,192.5C 127.5,192.833 128.167,193.5 128.5,194.5C 126.96,195.532 126.46,196.865 127,198.5C 127.414,198.043 127.914,197.709 128.5,197.5C 129.5,198.5 130.5,199.5 131.5,200.5C 130.674,201.451 130.508,202.451 131,203.5C 131.887,201.537 133.387,199.704 135.5,198C 134.692,197.692 134.025,197.192 133.5,196.5C 134.246,195.264 134.579,193.93 134.5,192.5C 136.861,192.674 139.194,193.007 141.5,193.5C 141.5,194.833 141.5,196.167 141.5,197.5C 140.022,197.238 138.689,197.571 137.5,198.5C 138.952,202.306 140.285,206.139 141.5,210C 140.644,219.722 139.978,229.556 139.5,239.5C 140.675,239.281 141.675,239.614 142.5,240.5C 140.833,241.167 139.167,241.833 137.5,242.5C 144.049,244.093 144.049,245.093 137.5,245.5C 137.643,247.262 137.309,248.929 136.5,250.5C 139.167,252.5 139.167,254.5 136.5,256.5C 137.167,257.167 137.833,257.833 138.5,258.5C 136.076,260.714 136.743,261.714 140.5,261.5C 140.234,264.666 139.901,267.833 139.5,271C 139.691,273.05 140.358,274.883 141.5,276.5C 140.252,279.07 139.252,281.737 138.5,284.5C 137.833,283.5 137.167,282.5 136.5,281.5C 134.018,286.617 134.351,291.617 137.5,296.5C 136.395,297.892 135.061,299.059 133.5,300C 134.833,300.333 136.167,300.667 137.5,301C 135.273,301.704 134.94,302.871 136.5,304.5 Z"/></g>
<g><path style="opacity:1" fill="#c3c3c3" d="M 384.5,142.5 C 382.64,145.711 380.64,148.878 378.5,152C 380.155,153.301 381.489,154.801 382.5,156.5C 382.088,162.149 380.755,167.482 378.5,172.5C 375.647,175.726 374.313,179.56 374.5,184C 373.961,187.833 375.128,191 378,193.5C 379.087,191.068 379.587,191.402 379.5,194.5C 381.857,194.337 384.19,194.503 386.5,195C 386.043,195.414 385.709,195.914 385.5,196.5C 386.5,197.833 387.5,199.167 388.5,200.5C 386.703,201.695 385.703,203.362 385.5,205.5C 382.348,206.041 379.848,205.041 378,202.5C 375.524,197.229 373.357,191.896 371.5,186.5C 372.222,182.609 373.056,178.609 374,174.5C 376.668,171.974 378.502,168.974 379.5,165.5C 380.135,162.507 380.301,159.507 380,156.5C 377.31,158.027 375.143,160.027 373.5,162.5C 373.765,154.043 374.932,145.71 377,137.5C 378.353,136.315 379.52,134.981 380.5,133.5C 383.474,134.577 386.474,134.577 389.5,133.5C 389.51,137.503 387.843,140.503 384.5,142.5 Z"/></g>
<g><path style="opacity:1" fill="#949494" d="M 384.5,142.5 C 381.683,145.426 378.849,148.426 376,151.5C 375.565,144.047 378.898,139.047 386,136.5C 386.322,138.689 385.822,140.689 384.5,142.5 Z"/></g>
<g><path style="opacity:0.995" fill="#dddddd" d="M 368.5,353.5 C 368.743,372.184 369.41,390.851 370.5,409.5C 369.539,407.735 369.205,405.735 369.5,403.5C 367.799,403.034 366.299,403.034 365,403.5C 364.667,402.5 364.333,401.5 364,400.5C 363.833,401.167 363.667,401.833 363.5,402.5C 364.4,404.239 365.067,406.072 365.5,408C 364.668,410.478 364.501,412.978 365,415.5C 365.333,414.5 365.667,413.5 366,412.5C 366.651,414.235 366.485,415.902 365.5,417.5C 366.167,419.167 366.833,420.833 367.5,422.5C 366.242,424.648 366.242,426.815 367.5,429C 365.197,431.822 362.531,434.322 359.5,436.5C 361.577,438.818 362.411,441.485 362,444.5C 361.667,444.167 361.333,443.833 361,443.5C 360.51,444.793 360.343,446.127 360.5,447.5C 357.104,447.633 356.771,448.633 359.5,450.5C 356.833,451.833 356.833,453.167 359.5,454.5C 358.311,455.429 356.978,455.762 355.5,455.5C 355.007,457.806 354.674,460.139 354.5,462.5C 355.5,462.5 356.5,462.5 357.5,462.5C 356.833,465.167 356.167,467.833 355.5,470.5C 356.873,470.343 358.207,470.51 359.5,471C 358.576,471.85 358.576,472.85 359.5,474C 357.166,476.169 354.499,477.835 351.5,479C 351.937,481.217 351.937,483.551 351.5,486C 353.494,488.72 356.161,490.22 359.5,490.5C 355.837,492.416 351.837,493.416 347.5,493.5C 347.822,491.278 347.155,489.444 345.5,488C 346.308,487.692 346.975,487.192 347.5,486.5C 346.67,484.865 346.503,483.198 347,481.5C 346.333,482.167 345.667,482.833 345,483.5C 343.865,483.273 342.698,482.94 341.5,482.5C 342.729,481.719 344.062,481.219 345.5,481C 344.549,480.282 344.383,479.449 345,478.5C 348.758,480.658 350.925,479.325 351.5,474.5C 350.022,474.762 348.689,474.429 347.5,473.5C 351.809,473.057 352.309,471.724 349,469.5C 348.444,471.595 347.944,471.762 347.5,470C 349.168,468.325 350.835,466.658 352.5,465C 351.09,464.632 350.09,463.799 349.5,462.5C 351.328,457.225 351.662,451.891 350.5,446.5C 352.415,444.929 353.415,442.929 353.5,440.5C 352.448,440.649 351.448,440.483 350.5,440C 352.028,438.352 352.695,436.352 352.5,434C 352.333,428.167 352.333,422.334 352.5,416.5C 353.167,416.167 353.833,415.833 354.5,415.5C 353.833,414.5 353.167,413.5 352.5,412.5C 353.682,407.985 353.349,403.318 351.5,398.5C 351.556,397.263 352.056,396.263 353,395.5C 353.654,396.696 354.154,396.696 354.5,395.5C 353.511,394.532 352.844,393.365 352.5,392C 353.434,387.089 353.767,382.089 353.5,377C 352.953,374.633 351.953,372.467 350.5,370.5C 352.15,367.652 351.816,365.152 349.5,363C 350.938,362.781 352.271,362.281 353.5,361.5C 350.869,359.995 351.203,359.329 354.5,359.5C 353.572,354.846 353.072,350.179 353,345.5C 354.342,346.902 355.176,346.569 355.5,344.5C 354.673,337.199 353.34,330.032 351.5,323C 351.964,318.565 351.964,314.232 351.5,310C 350.692,309.692 350.025,309.192 349.5,308.5C 352.028,307.184 352.028,306.017 349.5,305C 351.891,303.691 351.891,302.691 349.5,302C 350.978,300.807 352.312,300.307 353.5,300.5C 349.389,300.222 347.722,298.055 348.5,294C 348.629,292.019 349.296,290.353 350.5,289C 348.327,287.135 347.993,284.969 349.5,282.5C 347.981,279.852 346.981,277.018 346.5,274C 348.878,273.026 348.544,272.359 345.5,272C 347.663,271.755 349.33,270.755 350.5,269C 347.735,264.231 346.902,259.064 348,253.5C 348.333,253.833 348.667,254.167 349,254.5C 350.067,253.809 351.234,253.309 352.5,253C 351.376,252.751 350.376,252.251 349.5,251.5C 349.667,251.167 349.833,250.833 350,250.5C 351.011,251.337 352.178,251.67 353.5,251.5C 355.203,259.388 356.369,267.388 357,275.5C 357.696,278.609 358.862,281.442 360.5,284C 356.81,284.424 356.643,285.258 360,286.5C 360.252,291.44 361.086,296.273 362.5,301C 362.355,301.772 362.022,302.439 361.5,303C 362.877,305.333 363.877,307.833 364.5,310.5C 363.652,314.476 363.818,318.476 365,322.5C 365.414,322.957 365.914,323.291 366.5,323.5C 367.167,333.659 367.833,343.659 368.5,353.5 Z"/></g>
<g><path style="opacity:0.984" fill="#d8d8d8" d="M 370.5,409.5 C 371.463,433.83 371.963,458.163 372,482.5C 371.654,484.848 370.487,486.681 368.5,488C 365.568,489.145 362.568,489.978 359.5,490.5C 356.161,490.22 353.494,488.72 351.5,486C 351.937,483.551 351.937,481.217 351.5,479C 354.499,477.835 357.166,476.169 359.5,474C 358.576,472.85 358.576,471.85 359.5,471C 358.207,470.51 356.873,470.343 355.5,470.5C 356.167,467.833 356.833,465.167 357.5,462.5C 356.5,462.5 355.5,462.5 354.5,462.5C 354.674,460.139 355.007,457.806 355.5,455.5C 356.978,455.762 358.311,455.429 359.5,454.5C 356.833,453.167 356.833,451.833 359.5,450.5C 356.771,448.633 357.104,447.633 360.5,447.5C 360.343,446.127 360.51,444.793 361,443.5C 361.333,443.833 361.667,444.167 362,444.5C 362.411,441.485 361.577,438.818 359.5,436.5C 362.531,434.322 365.197,431.822 367.5,429C 366.242,426.815 366.242,424.648 367.5,422.5C 366.833,420.833 366.167,419.167 365.5,417.5C 366.485,415.902 366.651,414.235 366,412.5C 365.667,413.5 365.333,414.5 365,415.5C 364.501,412.978 364.668,410.478 365.5,408C 365.067,406.072 364.4,404.239 363.5,402.5C 363.667,401.833 363.833,401.167 364,400.5C 364.333,401.5 364.667,402.5 365,403.5C 366.299,403.034 367.799,403.034 369.5,403.5C 369.205,405.735 369.539,407.735 370.5,409.5 Z"/></g>
<g><path style="opacity:0.988" fill="#cacaca" d="M 123.5,423.5 C 124.29,424.609 124.79,425.942 125,427.5C 127.053,428.267 128.553,429.6 129.5,431.5C 130.991,433.541 130.658,435.041 128.5,436C 130.5,437.667 132.5,439.333 134.5,441C 133.328,441.419 132.328,442.085 131.5,443C 132.96,444.582 134.627,445.915 136.5,447C 132.728,448.389 132.728,449.389 136.5,450C 135.633,452.316 136.299,454.316 138.5,456C 137.833,456.333 137.167,456.667 136.5,457C 137.5,459.091 136.833,460.757 134.5,462C 135.833,462.333 137.167,462.667 138.5,463C 136.558,466.42 134.891,469.92 133.5,473.5C 128.578,473.11 128.244,474.277 132.5,477C 136.16,477.553 139.494,478.886 142.5,481C 141.322,481.967 139.989,482.467 138.5,482.5C 137.289,483.274 137.289,484.107 138.5,485C 136.074,486.145 133.741,487.478 131.5,489C 132.738,489.69 132.738,490.19 131.5,490.5C 127.787,490.23 124.954,488.564 123,485.5C 123.305,464.847 123.472,444.18 123.5,423.5 Z"/></g>
</svg>
